<svg width="172" height="265" viewBox="0 0 172 265" fill="none" xmlns="http://www.w3.org/2000/svg">
<path opacity="0.16" d="M122.366 41.0173C124.374 62.6413 99.236 75.899 82.5253 62.0288C72.1661 53.4304 56.7979 54.8579 48.1996 65.2171L47.1783 66.4475C38.5799 76.8067 40.0074 92.1748 50.3666 100.773C67.0773 114.643 58.6763 141.794 37.0523 143.802L23.5807 145.053C9.736 146.339 -0.444881 158.605 0.841048 172.45C2.12698 186.294 14.3928 196.475 28.2374 195.189L138.07 184.988C145.992 184.252 153.882 186.694 160.005 191.775L241.217 259.183C251.916 268.064 267.788 266.589 276.668 255.89C285.549 245.191 284.074 229.319 273.375 220.439L192.163 153.031C186.041 147.949 182.188 140.644 181.452 132.721L171.251 22.889C169.965 9.04432 157.699 -1.13656 143.854 0.14936C130.01 1.43529 119.829 13.7011 121.115 27.5458L122.366 41.0173Z" fill="#AE94E5"/>
</svg>
