<svg width="146" height="49" viewBox="0 0 146 49" fill="none" xmlns="http://www.w3.org/2000/svg">
<g clip-path="url(#clip0_1_11882)">
<path d="M134.078 -8.66163e-05H12.1784C11.7341 -8.66163e-05 11.2951 -8.66163e-05 10.8519 0.00233683C10.4809 0.00476029 10.1129 0.0118004 9.73839 0.0177257C8.92473 0.0273006 8.11299 0.0988826 7.31021 0.23185C6.50856 0.367712 5.73203 0.62385 5.00687 0.991602C4.28259 1.36246 3.6208 1.84436 3.04551 2.41981C2.46719 2.99365 1.98512 3.65692 1.61783 4.38413C1.24952 5.10989 0.994141 5.88761 0.860499 6.69043C0.725586 7.49224 0.652989 8.30329 0.643358 9.11631C0.632113 9.48782 0.630925 9.86057 0.625 10.2321V38.2403C0.630925 38.6165 0.632113 38.981 0.643358 39.3574C0.652992 40.1703 0.725589 40.9813 0.860499 41.7831C0.993772 42.5864 1.24917 43.3646 1.61783 44.0906C1.98495 44.8155 2.46709 45.476 3.04551 46.0467C3.61862 46.6247 4.28084 47.1069 5.00687 47.4749C5.73202 47.8437 6.50847 48.1013 7.31021 48.2393C8.11312 48.3712 8.92478 48.4428 9.73839 48.4535C10.1129 48.4618 10.4809 48.4665 10.8519 48.4665C11.2951 48.4689 11.7341 48.4689 12.1784 48.4689H134.078C134.514 48.4689 134.956 48.4689 135.392 48.4665C135.761 48.4665 136.139 48.4618 136.509 48.4535C137.321 48.4434 138.131 48.3718 138.932 48.2393C139.736 48.1004 140.516 47.8428 141.244 47.4749C141.97 47.1067 142.631 46.6245 143.204 46.0467C143.781 45.4738 144.264 44.8137 144.636 44.0906C145.002 43.364 145.255 42.5859 145.386 41.7831C145.521 40.9812 145.596 40.1704 145.611 39.3574C145.616 38.981 145.616 38.6165 145.616 38.2403C145.625 37.8 145.625 37.3623 145.625 36.9149V11.5551C145.625 11.1113 145.625 10.6711 145.616 10.2321C145.616 9.86057 145.616 9.48782 145.611 9.11626C145.596 8.30317 145.521 7.4923 145.386 6.69038C145.254 5.88803 145.001 5.11037 144.636 4.38408C143.888 2.92647 142.702 1.73998 141.244 0.991492C140.516 0.624639 139.736 0.368569 138.932 0.231741C138.131 0.0981877 137.321 0.0265807 136.509 0.0175561C136.139 0.0116429 135.761 0.00454217 135.392 0.00217931C134.956 -0.000244141 134.514 -0.000244141 134.078 -0.000244141V-8.66163e-05Z" fill="#A6A6A6"/>
<path d="M10.8578 47.4086C10.4886 47.4086 10.1284 47.4038 9.76206 47.3956C9.00326 47.3857 8.24623 47.3196 7.49718 47.198C6.79873 47.0777 6.12212 46.8539 5.48966 46.5341C4.86301 46.2169 4.29145 45.8009 3.79688 45.3022C3.29516 44.8094 2.87745 44.2378 2.5603 43.61C2.23967 42.9782 2.01777 42.301 1.90234 41.602C1.77768 40.8508 1.71024 40.0913 1.70059 39.33C1.6929 39.0744 1.68285 38.2236 1.68285 38.2236V10.232C1.68285 10.232 1.69356 9.39422 1.70065 9.14808C1.70989 8.38795 1.77694 7.62961 1.90122 6.87965C2.01687 6.17869 2.23894 5.49952 2.55975 4.86564C2.87572 4.23835 3.29111 3.66631 3.78982 3.17171C4.28796 2.67241 4.86135 2.25434 5.48907 1.93276C6.12007 1.61393 6.7954 1.39175 7.49244 1.27365C8.24395 1.15074 9.00361 1.08429 9.76504 1.07485L10.8584 1.06006H135.386L136.492 1.07545C137.247 1.08441 137.999 1.15027 138.744 1.27246C139.448 1.39204 140.13 1.61577 140.769 1.93631C142.026 2.58439 143.049 3.60973 143.695 4.8686C144.011 5.4981 144.229 6.17173 144.343 6.86663C144.469 7.62275 144.54 8.38704 144.554 9.15341C144.558 9.49658 144.558 9.86518 144.558 10.232C144.567 10.6864 144.567 11.1189 144.567 11.555V36.9148C144.567 37.355 144.567 37.7845 144.558 38.2176C144.558 38.6117 144.558 38.9726 144.553 39.3442C144.539 40.0969 144.47 40.8475 144.346 41.5901C144.233 42.2942 144.012 42.9767 143.691 43.6137C143.372 44.2346 142.957 44.8012 142.461 45.2928C141.966 45.7942 141.393 46.2125 140.765 46.5317C140.129 46.8541 139.447 47.0786 138.744 47.198C137.995 47.3203 137.238 47.3864 136.479 47.3956C136.124 47.4038 135.752 47.4086 135.392 47.4086L134.078 47.411L10.8578 47.4086Z" fill="black"/>
<path d="M30.6381 24.5988C30.6511 23.5874 30.9198 22.5958 31.419 21.7161C31.9183 20.8365 32.6319 20.0974 33.4936 19.5676C32.9462 18.7859 32.2241 18.1425 31.3846 17.6887C30.545 17.2348 29.6113 16.983 28.6574 16.9531C26.6226 16.7395 24.65 18.1707 23.6131 18.1707C22.5561 18.1707 20.9597 16.9743 19.2406 17.0097C18.1286 17.0456 17.0449 17.369 16.0951 17.9483C15.1452 18.5275 14.3616 19.343 13.8206 20.3151C11.4772 24.3725 13.2252 30.3355 15.47 33.6151C16.5932 35.2211 17.9058 37.015 19.6234 36.9514C21.3041 36.8817 21.9318 35.8796 23.9606 35.8796C25.9706 35.8796 26.5595 36.9514 28.3119 36.9109C30.1154 36.8816 31.2517 35.2978 32.3355 33.6767C33.1425 32.5324 33.7634 31.2676 34.1754 29.9294C33.1276 29.4862 32.2334 28.7444 31.6044 27.7965C30.9754 26.8486 30.6393 25.7365 30.6381 24.5988Z" fill="white"/>
<path d="M27.3281 14.7961C28.3114 13.6156 28.7959 12.0983 28.6786 10.5664C27.1762 10.7242 25.7885 11.4422 24.7919 12.5774C24.3046 13.132 23.9314 13.7771 23.6936 14.476C23.4558 15.1749 23.3581 15.9138 23.406 16.6505C24.1574 16.6582 24.9008 16.4953 25.5802 16.1741C26.2596 15.8529 26.8572 15.3817 27.3281 14.7961Z" fill="white"/>
<path d="M51.8837 32.8856H46.1481L44.7708 36.9527H42.3414L47.774 21.9055H50.2981L55.7307 36.9527H53.2599L51.8837 32.8856ZM46.7422 31.0089H51.2886L49.0473 24.4083H48.9846L46.7422 31.0089Z" fill="white"/>
<path d="M67.4634 31.4679C67.4634 34.8771 65.6387 37.0674 62.8851 37.0674C62.1876 37.1039 61.4938 36.9432 60.8834 36.6038C60.2729 36.2643 59.7704 35.7598 59.4333 35.1481H59.3812V40.5819H57.1294V25.982H59.3091V27.8067H59.3505C59.7031 27.1979 60.2141 26.696 60.8292 26.3545C61.4443 26.013 62.1405 25.8446 62.8437 25.8673C65.628 25.8673 67.4634 28.0682 67.4634 31.4679ZM65.1488 31.4679C65.1488 29.2469 64.001 27.7866 62.2496 27.7866C60.5291 27.7866 59.3718 29.2776 59.3718 31.4679C59.3718 33.6784 60.5291 35.1587 62.2496 35.1587C64.001 35.1587 65.1488 33.7092 65.1488 31.4679Z" fill="white"/>
<path d="M79.538 31.4679C79.538 34.8771 77.7133 37.0674 74.9597 37.0674C74.2622 37.1039 73.5685 36.9432 72.958 36.6038C72.3476 36.2643 71.845 35.7598 71.508 35.1481H71.4559V40.5819H69.204V25.982H71.3837V27.8067H71.4251C71.7777 27.1979 72.2887 26.696 72.9038 26.3545C73.5189 26.013 74.2151 25.8446 74.9183 25.8673C77.7027 25.8673 79.538 28.0682 79.538 31.4679ZM77.2234 31.4679C77.2234 29.2468 76.0756 27.7866 74.3243 27.7866C72.6037 27.7866 71.4464 29.2776 71.4464 31.4679C71.4464 33.6784 72.6037 35.1587 74.3243 35.1587C76.0756 35.1587 77.2234 33.7092 77.2234 31.4679H77.2234Z" fill="white"/>
<path d="M87.5184 32.7601C87.6852 34.2523 89.1348 35.232 91.1157 35.232C93.0137 35.232 94.3793 34.2522 94.3793 32.9068C94.3793 31.7388 93.5557 31.0395 91.6056 30.5603L89.6555 30.0905C86.8924 29.4231 85.6097 28.1309 85.6097 26.034C85.6097 23.4378 87.8722 21.6545 91.0849 21.6545C94.2645 21.6545 96.4442 23.4378 96.5176 26.034H94.2444C94.1083 24.5324 92.867 23.626 91.0529 23.626C89.2389 23.626 87.9976 24.5431 87.9976 25.8778C87.9976 26.9416 88.7904 27.5676 90.7299 28.0468L92.3877 28.4539C95.475 29.184 96.7578 30.4242 96.7578 32.6251C96.7578 35.4402 94.5153 37.2034 90.9488 37.2034C87.6118 37.2034 85.3588 35.4817 85.2132 32.76L87.5184 32.7601Z" fill="white"/>
<path d="M101.618 23.3857V25.982H103.704V27.7652H101.618V33.8132C101.618 34.7528 102.035 35.1906 102.952 35.1906C103.2 35.1863 103.447 35.1689 103.693 35.1385V36.9111C103.281 36.9882 102.862 37.023 102.442 37.0153C100.221 37.0153 99.3552 36.181 99.3552 34.0534V27.7652H97.7601V25.982H99.3552V23.3857H101.618Z" fill="white"/>
<path d="M104.912 31.468C104.912 28.0162 106.945 25.8472 110.115 25.8472C113.296 25.8472 115.319 28.0162 115.319 31.468C115.319 34.9292 113.307 37.0888 110.115 37.0888C106.925 37.0888 104.912 34.9292 104.912 31.468ZM113.025 31.468C113.025 29.1001 111.94 27.7026 110.115 27.7026C108.291 27.7026 107.207 29.1108 107.207 31.468C107.207 33.8453 108.291 35.2321 110.115 35.2321C111.94 35.2321 113.025 33.8453 113.025 31.468H113.025Z" fill="white"/>
<path d="M117.176 25.9819H119.324V27.8492H119.376C119.521 27.266 119.863 26.7506 120.343 26.3897C120.824 26.0287 121.414 25.8442 122.015 25.8671C122.274 25.8662 122.533 25.8944 122.786 25.9512V28.0575C122.459 27.9574 122.117 27.9114 121.774 27.9214C121.447 27.9081 121.121 27.9658 120.818 28.0905C120.516 28.2152 120.244 28.4039 120.021 28.6436C119.798 28.8834 119.629 29.1686 119.527 29.4796C119.425 29.7907 119.391 30.1201 119.428 30.4454V36.9525H117.176L117.176 25.9819Z" fill="white"/>
<path d="M133.169 33.7305C132.866 35.722 130.926 37.0888 128.445 37.0888C125.253 37.0888 123.273 34.9505 123.273 31.52C123.273 28.0789 125.264 25.8472 128.35 25.8472C131.385 25.8472 133.294 27.9322 133.294 31.2585V32.03H125.546V32.1661C125.51 32.5699 125.561 32.9766 125.694 33.3593C125.828 33.742 126.041 34.092 126.32 34.3859C126.599 34.6798 126.938 34.9109 127.313 35.064C127.688 35.217 128.092 35.2884 128.497 35.2735C129.029 35.3234 129.563 35.2001 130.02 34.9221C130.476 34.6441 130.831 34.2262 131.03 33.7305L133.169 33.7305ZM125.556 30.4562H131.041C131.061 30.0932 131.006 29.7299 130.879 29.3892C130.753 29.0484 130.557 28.7376 130.304 28.4761C130.051 28.2147 129.747 28.0083 129.411 27.8699C129.075 27.7315 128.714 27.664 128.35 27.6719C127.984 27.6697 127.62 27.7401 127.281 27.8792C126.941 28.0182 126.633 28.2231 126.373 28.4819C126.113 28.7408 125.908 29.0485 125.767 29.3874C125.627 29.7263 125.555 30.0895 125.556 30.4562V30.4562Z" fill="white"/>
<path d="M46.46 10.5795C46.9321 10.5456 47.4058 10.6169 47.847 10.7883C48.2882 10.9597 48.6859 11.2269 49.0113 11.5705C49.3368 11.9142 49.5819 12.3258 49.729 12.7757C49.8761 13.2256 49.9215 13.7025 49.862 14.1721C49.862 16.4819 48.6136 17.8097 46.46 17.8097H43.8484V10.5795H46.46ZM44.9713 16.7872H46.3345C46.6719 16.8073 47.0095 16.752 47.3227 16.6253C47.636 16.4985 47.9171 16.3035 48.1455 16.0544C48.3739 15.8053 48.5439 15.5084 48.6431 15.1853C48.7423 14.8623 48.7682 14.5211 48.7189 14.1868C48.7646 13.8538 48.7361 13.5148 48.6354 13.1941C48.5346 12.8734 48.3642 12.5789 48.1364 12.3318C47.9085 12.0847 47.6288 11.8911 47.3172 11.7648C47.0057 11.6384 46.6701 11.5826 46.3345 11.6012H44.9713V16.7872Z" fill="white"/>
<path d="M51.1305 15.0789C51.0962 14.7203 51.1373 14.3585 51.251 14.0167C51.3647 13.6749 51.5486 13.3607 51.7908 13.0941C52.0331 12.8275 52.3284 12.6146 52.6578 12.4688C52.9873 12.3231 53.3435 12.2478 53.7037 12.2478C54.0639 12.2478 54.4201 12.3231 54.7495 12.4688C55.079 12.6146 55.3743 12.8275 55.6165 13.0941C55.8588 13.3607 56.0427 13.6749 56.1564 14.0167C56.2701 14.3585 56.3111 14.7203 56.2768 15.0789C56.3118 15.4378 56.2713 15.8001 56.1578 16.1424C56.0444 16.4848 55.8607 16.7996 55.6183 17.0667C55.376 17.3338 55.0805 17.5472 54.7507 17.6932C54.421 17.8393 54.0643 17.9147 53.7037 17.9147C53.3431 17.9147 52.9864 17.8393 52.6567 17.6932C52.3269 17.5472 52.0314 17.3338 51.7891 17.0667C51.5467 16.7996 51.3629 16.4848 51.2495 16.1424C51.1361 15.8001 51.0956 15.4378 51.1305 15.0789ZM55.1692 15.0789C55.1692 13.8961 54.6379 13.2045 53.7055 13.2045C52.7695 13.2045 52.2429 13.8961 52.2429 15.0789C52.2429 16.2711 52.7695 16.9574 53.7055 16.9574C54.6379 16.9574 55.1692 16.2663 55.1692 15.0789H55.1692Z" fill="white"/>
<path d="M63.1176 17.8093H62.0006L60.8729 13.7908H60.7877L59.6647 17.8093H58.5583L57.0543 12.353H58.1465L59.1239 16.5165H59.2044L60.3262 12.353H61.3592L62.481 16.5165H62.5662L63.5389 12.353H64.6157L63.1176 17.8093Z" fill="white"/>
<path d="M65.8807 12.3531H66.9173V13.2199H66.9977C67.1342 12.9086 67.3645 12.6476 67.6563 12.4734C67.9482 12.2991 68.2872 12.2203 68.626 12.2478C68.8915 12.2278 69.1581 12.2679 69.406 12.3649C69.6539 12.462 69.8768 12.6136 70.0582 12.8085C70.2395 13.0034 70.3747 13.2366 70.4538 13.4908C70.5328 13.7451 70.5535 14.0138 70.5146 14.2772V17.8094H69.4378V14.5476C69.4378 13.6708 69.0567 13.2347 68.2603 13.2347C68.0801 13.2263 67.9002 13.257 67.7329 13.3246C67.5656 13.3923 67.4149 13.4953 67.2912 13.6266C67.1674 13.758 67.0735 13.9145 67.0159 14.0855C66.9583 14.2565 66.9384 14.438 66.9575 14.6174V17.8094H65.8807L65.8807 12.3531Z" fill="white"/>
<path d="M72.2304 10.2231H73.3072V17.8094H72.2304V10.2231Z" fill="white"/>
<path d="M74.8041 15.079C74.7699 14.7204 74.8109 14.3586 74.9246 14.0168C75.0384 13.6749 75.2223 13.3607 75.4646 13.0941C75.7069 12.8276 76.0022 12.6146 76.3317 12.4688C76.6611 12.3231 77.0173 12.2478 77.3776 12.2478C77.7378 12.2478 78.0941 12.3231 78.4235 12.4688C78.7529 12.6146 79.0483 12.8276 79.2906 13.0941C79.5329 13.3607 79.7168 13.6749 79.8305 14.0168C79.9442 14.3586 79.9853 14.7204 79.951 15.079C79.9859 15.4379 79.9454 15.8002 79.8319 16.1425C79.7185 16.4849 79.5347 16.7997 79.2923 17.0668C79.0499 17.3338 78.7544 17.5473 78.4246 17.6933C78.0949 17.8394 77.7382 17.9148 77.3776 17.9148C77.0169 17.9148 76.6603 17.8394 76.3305 17.6933C76.0008 17.5473 75.7052 17.3338 75.4628 17.0668C75.2205 16.7997 75.0367 16.4849 74.9232 16.1425C74.8098 15.8002 74.7692 15.4379 74.8041 15.079ZM78.8428 15.079C78.8428 13.8962 78.3115 13.2046 77.379 13.2046C76.443 13.2046 75.9165 13.8962 75.9165 15.079C75.9165 16.2712 76.4431 16.9575 77.379 16.9575C78.3115 16.9575 78.8428 16.2664 78.8428 15.079H78.8428Z" fill="white"/>
<path d="M81.0847 16.2664C81.0847 15.2842 81.816 14.718 83.114 14.6375L84.592 14.5523V14.0814C84.592 13.5051 84.211 13.1797 83.475 13.1797C82.8738 13.1797 82.4573 13.4004 82.3378 13.7861H81.2953C81.4053 12.8489 82.2869 12.2478 83.5247 12.2478C84.8926 12.2478 85.6641 12.9288 85.6641 14.0814V17.8094H84.6275V17.0426H84.5423C84.3694 17.3177 84.1266 17.5419 83.8386 17.6924C83.5507 17.8429 83.228 17.9143 82.9034 17.8993C82.6744 17.9232 82.4429 17.8987 82.2238 17.8276C82.0048 17.7565 81.8031 17.6402 81.6317 17.4864C81.4604 17.3325 81.3232 17.1445 81.2289 16.9343C81.1347 16.7242 81.0856 16.4967 81.0847 16.2664ZM84.592 15.8001V15.344L83.2596 15.4292C82.5082 15.4795 82.1674 15.7351 82.1674 16.2161C82.1674 16.7071 82.5934 16.9929 83.1792 16.9929C83.3508 17.0103 83.5242 16.993 83.689 16.942C83.8538 16.891 84.0066 16.8073 84.1385 16.696C84.2703 16.5848 84.3784 16.4481 84.4563 16.2942C84.5342 16.1403 84.5804 15.9723 84.592 15.8001Z" fill="white"/>
<path d="M87.0794 15.0789C87.0794 13.3548 87.9657 12.2626 89.3443 12.2626C89.6853 12.2469 90.0237 12.3286 90.32 12.4981C90.6163 12.6676 90.8582 12.918 91.0175 13.2199H91.098V10.2231H92.1748V17.8094H91.1429V16.9474H91.0577C90.8861 17.2473 90.6358 17.4945 90.3338 17.6623C90.0317 17.8301 89.6895 17.9121 89.3443 17.8994C87.9562 17.8994 87.0794 16.8072 87.0794 15.0789ZM88.1917 15.0789C88.1917 16.2362 88.7373 16.9326 89.6496 16.9326C90.5572 16.9326 91.1181 16.2262 91.1181 15.0837C91.1181 13.9465 90.5513 13.23 89.6496 13.23C88.7431 13.23 88.1917 13.9311 88.1917 15.0789H88.1917Z" fill="white"/>
<path d="M96.63 15.0789C96.5957 14.7203 96.6367 14.3585 96.7504 14.0167C96.8641 13.6749 97.048 13.3607 97.2903 13.0941C97.5326 12.8275 97.8279 12.6146 98.1573 12.4688C98.4867 12.3231 98.8429 12.2478 99.2031 12.2478C99.5633 12.2478 99.9196 12.3231 100.249 12.4688C100.578 12.6146 100.874 12.8275 101.116 13.0941C101.358 13.3607 101.542 13.6749 101.656 14.0167C101.77 14.3585 101.811 14.7203 101.776 15.0789C101.811 15.4378 101.771 15.8001 101.657 16.1424C101.544 16.4848 101.36 16.7996 101.118 17.0667C100.875 17.3338 100.58 17.5472 100.25 17.6932C99.9204 17.8393 99.5638 17.9147 99.2031 17.9147C98.8425 17.9147 98.4858 17.8393 98.1561 17.6932C97.8264 17.5472 97.5308 17.3338 97.2885 17.0667C97.0462 16.7996 96.8624 16.4848 96.749 16.1424C96.6356 15.8001 96.595 15.4378 96.63 15.0789ZM100.669 15.0789C100.669 13.8961 100.137 13.2045 99.2049 13.2045C98.2689 13.2045 97.7424 13.8961 97.7424 15.0789C97.7424 16.2711 98.2689 16.9574 99.2049 16.9574C100.137 16.9574 100.669 16.2663 100.669 15.0789Z" fill="white"/>
<path d="M103.221 12.3531H104.258V13.2199H104.338C104.475 12.9086 104.705 12.6476 104.997 12.4734C105.289 12.2991 105.628 12.2203 105.966 12.2478C106.232 12.2278 106.499 12.2679 106.746 12.3649C106.994 12.462 107.217 12.6136 107.399 12.8085C107.58 13.0034 107.715 13.2366 107.794 13.4908C107.873 13.7451 107.894 14.0138 107.855 14.2772V17.8094H106.778V14.5476C106.778 13.6708 106.397 13.2347 105.601 13.2347C105.421 13.2263 105.241 13.257 105.073 13.3246C104.906 13.3923 104.755 13.4953 104.632 13.6266C104.508 13.758 104.414 13.9145 104.356 14.0855C104.299 14.2565 104.279 14.438 104.298 14.6174V17.8094H103.221V12.3531Z" fill="white"/>
<path d="M113.94 10.9946V12.3779H115.122V13.285H113.94V16.0906C113.94 16.6622 114.175 16.9124 114.711 16.9124C114.848 16.912 114.986 16.9037 115.122 16.8876V17.7845C114.928 17.8191 114.733 17.8375 114.536 17.8396C113.339 17.8396 112.862 17.4183 112.862 16.3663V13.2849H111.995V12.3779H112.862V10.9946H113.94Z" fill="white"/>
<path d="M116.593 10.2231H117.66V13.23H117.745C117.888 12.9158 118.125 12.6533 118.423 12.4784C118.72 12.3035 119.065 12.2246 119.409 12.2526C119.673 12.2382 119.937 12.2823 120.182 12.3817C120.427 12.4811 120.647 12.6334 120.827 12.8277C121.006 13.022 121.141 13.2535 121.221 13.5057C121.3 13.7579 121.323 14.0245 121.288 14.2867V17.8095H120.21V14.5523C120.21 13.6808 119.804 13.2394 119.043 13.2394C118.858 13.2243 118.672 13.2497 118.498 13.314C118.324 13.3783 118.166 13.4798 118.035 13.6116C117.904 13.7434 117.803 13.9021 117.74 14.0768C117.677 14.2514 117.653 14.4378 117.67 14.6227V17.8094H116.593L116.593 10.2231Z" fill="white"/>
<path d="M127.567 16.3363C127.421 16.835 127.104 17.2663 126.671 17.5549C126.239 17.8435 125.719 17.9709 125.203 17.9148C124.843 17.9243 124.486 17.8555 124.156 17.7131C123.825 17.5706 123.53 17.3581 123.29 17.0901C123.051 16.8222 122.872 16.5052 122.767 16.1613C122.662 15.8174 122.633 15.4547 122.682 15.0985C122.634 14.7412 122.664 14.3778 122.768 14.0328C122.873 13.6879 123.051 13.3695 123.29 13.0992C123.528 12.8289 123.822 12.613 124.151 12.4661C124.48 12.3192 124.837 12.2448 125.198 12.2479C126.716 12.2479 127.632 13.2851 127.632 14.9985V15.3743H123.779V15.4346C123.762 15.6348 123.787 15.8364 123.853 16.0263C123.919 16.2163 124.023 16.3904 124.16 16.5376C124.297 16.6847 124.463 16.8017 124.647 16.8809C124.832 16.9602 125.031 17 125.232 16.9977C125.49 17.0286 125.751 16.9823 125.982 16.8645C126.213 16.7467 126.404 16.5628 126.53 16.3362L127.567 16.3363ZM123.779 14.5779H126.535C126.549 14.3947 126.524 14.2108 126.462 14.0379C126.4 13.8649 126.303 13.7068 126.176 13.5737C126.05 13.4406 125.897 13.3354 125.727 13.2649C125.558 13.1944 125.375 13.1602 125.192 13.1644C125.006 13.162 124.821 13.197 124.648 13.2672C124.476 13.3374 124.319 13.4415 124.187 13.5732C124.056 13.7049 123.952 13.8617 123.882 14.0342C123.812 14.2068 123.777 14.3916 123.779 14.5779H123.779Z" fill="white"/>
</g>
<defs>
<clipPath id="clip0_1_11882">
<rect width="145" height="48.469" fill="white" transform="translate(0.625)"/>
</clipPath>
</defs>
</svg>
