<svg width="159" height="47" viewBox="0 0 159 47" fill="none" xmlns="http://www.w3.org/2000/svg">
<g clip-path="url(#clip0_1_11881)">
<path fill-rule="evenodd" clip-rule="evenodd" d="M152.748 47H5.87716C2.63801 47 0 44.3511 0 41.125V5.875C0 2.63716 2.63801 0 5.87716 0H152.748C155.984 0 158.625 2.63716 158.625 5.875V41.125C158.625 44.3511 155.984 47 152.748 47Z" fill="black"/>
<path fill-rule="evenodd" clip-rule="evenodd" d="M152.748 0.940586C155.465 0.940586 157.688 3.15873 157.688 5.875V41.125C157.688 43.8413 155.479 46.0594 152.748 46.0594H5.87716C3.16036 46.0594 0.936727 43.8413 0.936727 41.125V5.875C0.936727 3.15873 3.14577 0.940586 5.87716 0.940586C5.87716 0.940586 152.748 0.940586 152.748 0.940586ZM152.748 0H5.87716C2.63801 0 0 2.64888 0 5.875V41.125C0 44.3628 2.63801 47 5.87716 47H152.748C155.984 47 158.625 44.3628 158.625 41.125V5.875C158.625 2.64888 155.984 0 152.748 0Z" fill="#A6A6A6"/>
<path d="M83.564 15.5474C82.5048 15.5474 81.6118 15.1753 80.9056 14.4427C80.2053 13.7307 79.8142 12.7491 79.8317 11.747C79.8317 10.6775 80.1936 9.77203 80.9056 9.05414C81.6089 8.3216 82.5018 7.94946 83.5611 7.94946C84.6087 7.94946 85.5017 8.3216 86.2195 9.05414C86.9316 9.79547 87.2934 10.7009 87.2934 11.747C87.2817 12.8194 86.9199 13.7248 86.2195 14.4398C85.5163 15.1782 84.6233 15.5474 83.564 15.5474ZM52.0452 15.5474C51.0093 15.5474 50.1105 15.1811 49.3752 14.4574C48.6456 13.7366 48.275 12.8253 48.275 11.7499C48.275 10.6745 48.6456 9.76324 49.3752 9.04242C50.0959 8.31867 50.9947 7.95239 52.0452 7.95239C52.5588 7.95239 53.0578 8.05495 53.5364 8.26299C54.0062 8.46517 54.3885 8.74061 54.6716 9.07758L54.7416 9.16256L53.9508 9.94198L53.8691 9.84529C53.4226 9.31199 52.8244 9.05121 52.0336 9.05121C51.3274 9.05121 50.7117 9.3032 50.2039 9.80133C49.6932 10.3024 49.4335 10.9588 49.4335 11.7528C49.4335 12.5469 49.6932 13.2033 50.2039 13.7043C50.7117 14.2025 51.3274 14.4545 52.0336 14.4545C52.7865 14.4545 53.4197 14.2025 53.9129 13.7043C54.2047 13.4113 54.3856 13.0011 54.4498 12.4824H51.9139V11.3866H55.5383L55.5528 11.4862C55.5791 11.6708 55.6054 11.8612 55.6054 12.0371C55.6054 13.048 55.3019 13.8655 54.7008 14.4691C54.0179 15.1841 53.125 15.5474 52.0452 15.5474ZM93.9526 15.3921H92.835L89.412 9.89217L89.4412 10.8826V15.3892H88.3235V8.10769H89.5987L89.6338 8.16337L92.8525 13.3439L92.8233 12.3564V8.10769H93.9526V15.3921V15.3921ZM75.1656 15.3921H74.0334V9.20358H72.0695V8.10769H77.1266V9.20358H75.1627V15.3921H75.1656ZM71.1474 15.3921H70.018V8.10769H71.1474V15.3921ZM64.8004 15.3921H63.6711V9.20358H61.7072V8.10769H66.7643V9.20358H64.8004V15.3921ZM60.9923 15.3804H56.6617V8.10769H60.9923V9.20358H57.794V11.202H60.68V12.2861H57.794V14.2845H60.9923V15.3804ZM81.7344 13.6897C82.2392 14.1966 82.852 14.4515 83.564 14.4515C84.2965 14.4515 84.8947 14.2025 85.3937 13.6897C85.8898 13.1915 86.1407 12.5381 86.1407 11.7499C86.1407 10.9617 85.8898 10.3053 85.3966 9.81012C84.8918 9.3032 84.2761 9.04828 83.5669 9.04828C82.8345 9.04828 82.2363 9.29734 81.7402 9.81012C81.2441 10.3083 80.9932 10.9617 80.9932 11.7499C80.9932 12.5381 81.2412 13.1945 81.7344 13.6897Z" fill="white"/>
<path fill-rule="evenodd" clip-rule="evenodd" d="M79.7268 25.5629C76.9691 25.5629 74.7338 27.6639 74.7338 30.5618C74.7338 33.4334 76.9837 35.5607 79.7268 35.5607C82.4844 35.5607 84.7197 33.4451 84.7197 30.5618C84.7197 27.6639 82.4844 25.5629 79.7268 25.5629ZM79.7268 33.5799C78.2181 33.5799 76.9195 32.3258 76.9195 30.5501C76.9195 28.748 78.221 27.5203 79.7268 27.5203C81.2355 27.5203 82.534 28.748 82.534 30.5501C82.537 32.3375 81.2355 33.5799 79.7268 33.5799ZM68.8333 25.5629C66.0756 25.5629 63.8403 27.6639 63.8403 30.5618C63.8403 33.4334 66.0902 35.5607 68.8333 35.5607C71.5909 35.5607 73.8263 33.4451 73.8263 30.5618C73.8263 27.6639 71.588 25.5629 68.8333 25.5629ZM68.8333 33.5799C67.3246 33.5799 66.026 32.3258 66.026 30.5501C66.026 28.748 67.3275 27.5203 68.8333 27.5203C70.342 27.5203 71.6406 28.748 71.6406 30.5501C71.6406 32.3375 70.342 33.5799 68.8333 33.5799ZM55.8708 27.0896V29.2051H60.928C60.7733 30.3919 60.3823 31.268 59.7841 31.8687C59.0429 32.6129 57.899 33.4217 55.8825 33.4217C52.7747 33.4217 50.3438 30.9017 50.3438 27.7811C50.3438 24.6604 52.7747 22.1405 55.8825 22.1405C57.5604 22.1405 58.7832 22.8056 59.6907 23.6554L61.1848 22.1551C59.9242 20.942 58.2462 20.0132 55.8942 20.0132C51.6307 20.0132 48.0531 23.5001 48.0531 27.7694C48.0531 32.0503 51.6278 35.5255 55.8942 35.5255C58.1966 35.5255 59.9242 34.7695 61.2899 33.3455C62.6818 31.9478 63.1225 29.9758 63.1225 28.3847C63.1225 27.8895 63.0845 27.4441 63.0057 27.0661H55.8679C55.8708 27.0632 55.8708 27.0896 55.8708 27.0896ZM108.891 28.7363C108.474 27.6141 107.213 25.5512 104.627 25.5512C102.065 25.5512 99.935 27.576 99.935 30.5501C99.935 33.3572 102.042 35.549 104.875 35.549C107.152 35.549 108.476 34.1513 109.022 33.3308L107.333 32.1939C106.772 33.029 105.993 33.577 104.887 33.577C103.769 33.577 102.987 33.0671 102.468 32.0621L109.124 29.293C109.124 29.296 108.891 28.7363 108.891 28.7363ZM102.103 30.4065C102.051 28.4755 103.597 27.4939 104.703 27.4939C105.576 27.4939 106.302 27.9247 106.55 28.5517L102.103 30.4065ZM96.6959 35.2501H98.8816V20.5641H96.6959V35.2501ZM93.1065 26.6735H93.0277C92.5346 26.0845 91.5978 25.5512 90.4014 25.5512C87.918 25.5512 85.6302 27.7459 85.6302 30.5647C85.6302 33.3718 87.9064 35.5402 90.4014 35.5402C91.5832 35.5402 92.5346 35.004 93.0277 34.4033H93.1065V35.1212C93.1065 37.0287 92.091 38.0572 90.4539 38.0572C89.1145 38.0572 88.2828 37.0902 87.9443 36.2815L86.0446 37.0785C86.5903 38.3971 88.0464 40.0292 90.451 40.0292C93.0131 40.0292 95.1843 38.5143 95.1843 34.8194V25.8501H93.1182V26.6735C93.1211 26.6735 93.1065 26.6735 93.1065 26.6735ZM90.5969 33.5799C89.0882 33.5799 87.8276 32.3141 87.8276 30.5647C87.8276 28.8008 89.0882 27.5232 90.5969 27.5232C92.091 27.5232 93.2495 28.8154 93.2495 30.5647C93.2641 32.3141 92.0939 33.5799 90.5969 33.5799ZM119.125 20.5641H113.898V35.2501H116.084V29.6886H119.128C121.547 29.6886 123.925 27.9276 123.925 25.1322C123.925 22.3368 121.556 20.5641 119.125 20.5641ZM119.189 27.6375H116.081V22.5976H119.189C120.826 22.5976 121.751 23.9543 121.751 25.1175C121.751 26.2691 120.814 27.6375 119.189 27.6375ZM132.685 25.5366C131.098 25.5366 129.461 26.2427 128.784 27.7811L130.722 28.5898C131.139 27.7811 131.903 27.5056 132.712 27.5056C133.844 27.5056 134.988 28.1854 135.014 29.3985V29.5538C134.623 29.3311 133.765 28.9912 132.738 28.9912C130.646 28.9912 128.524 30.1399 128.524 32.2935C128.524 34.2656 130.24 35.5314 132.151 35.5314C133.619 35.5314 134.428 34.8662 134.932 34.0956H135.011V35.2325H137.118V29.6066C137.118 26.987 135.181 25.5366 132.685 25.5366ZM132.411 33.5799C131.696 33.5799 130.695 33.2283 130.695 32.3258C130.695 31.1889 131.944 30.7581 133.009 30.7581C133.972 30.7581 134.428 30.9662 135 31.2533C134.842 32.5719 133.733 33.5682 132.411 33.5799ZM144.805 25.8501L142.295 32.2203H142.216L139.616 25.8501H137.264L141.166 34.7549L138.942 39.704H141.218L147.221 25.8501H144.805ZM125.13 35.2501H127.316V20.5641H125.13V35.2501Z" fill="white"/>
<path fill-rule="evenodd" clip-rule="evenodd" d="M12.2096 8.85182C11.8711 9.21809 11.6756 9.77776 11.6756 10.5103V36.4922C11.6756 37.2247 11.8711 37.7844 12.2213 38.136L12.3117 38.2151L26.8091 23.658V23.3327L12.3001 8.77271L12.2096 8.85182Z" fill="url(#paint0_linear_1_11881)"/>
<path fill-rule="evenodd" clip-rule="evenodd" d="M31.6327 28.5254L26.7973 23.6701V23.3302L31.6327 18.4749L31.7377 18.5393L37.4573 21.8035C39.0944 22.7295 39.0944 24.259 37.4573 25.1967L31.7377 28.4609L31.6327 28.5254Z" fill="url(#paint1_linear_1_11881)"/>
<path fill-rule="evenodd" clip-rule="evenodd" d="M31.7378 28.4608L26.7974 23.5L12.2095 38.1479C12.7435 38.7223 13.6394 38.7867 14.6403 38.2271L31.7378 28.4608Z" fill="url(#paint2_linear_1_11881)"/>
<path fill-rule="evenodd" clip-rule="evenodd" d="M31.7378 18.5391L14.6403 8.7875C13.6394 8.21319 12.7406 8.2923 12.2095 8.86662L26.7974 23.4999L31.7378 18.5391Z" fill="url(#paint3_linear_1_11881)"/>
<path opacity="0.2" fill-rule="evenodd" clip-rule="evenodd" d="M31.6328 28.3555L14.652 38.0426C13.7036 38.5905 12.8573 38.5524 12.3116 38.0543L12.2211 38.1451L12.3116 38.2243C12.8573 38.7195 13.7036 38.7605 14.652 38.2125L31.7495 28.461L31.6328 28.3555Z" fill="black"/>
<path opacity="0.12" fill-rule="evenodd" clip-rule="evenodd" d="M37.4574 25.0266L31.6182 28.3553L31.7232 28.4608L37.4428 25.1966C38.2628 24.7277 38.6655 24.1124 38.6655 23.5C38.6159 24.0626 38.1986 24.5959 37.4574 25.0266Z" fill="black"/>
<path opacity="0.25" fill-rule="evenodd" clip-rule="evenodd" d="M14.6404 8.95769L37.4575 21.9735C38.1987 22.3925 38.616 22.9405 38.6802 23.5001C38.6802 22.8877 38.2775 22.2724 37.4575 21.8036L14.6404 8.78774C13.0033 7.84715 11.6756 8.63244 11.6756 10.5107V10.6806C11.6756 8.79946 13.0033 8.02882 14.6404 8.95769Z" fill="white"/>
</g>
<defs>
<linearGradient id="paint0_linear_1_11881" x1="25.5087" y1="10.23" x2="2.2738" y2="16.3956" gradientUnits="userSpaceOnUse">
<stop stop-color="#00A0FF"/>
<stop offset="0.00657" stop-color="#00A1FF"/>
<stop offset="0.2601" stop-color="#00BEFF"/>
<stop offset="0.5122" stop-color="#00D2FF"/>
<stop offset="0.7604" stop-color="#00DFFF"/>
<stop offset="1" stop-color="#00E3FF"/>
</linearGradient>
<linearGradient id="paint1_linear_1_11881" x1="39.5923" y1="23.5001" x2="11.2774" y2="23.5001" gradientUnits="userSpaceOnUse">
<stop stop-color="#FFE000"/>
<stop offset="0.4087" stop-color="#FFBD00"/>
<stop offset="0.7754" stop-color="#FFA500"/>
<stop offset="1" stop-color="#FF9C00"/>
</linearGradient>
<linearGradient id="paint2_linear_1_11881" x1="29.0514" y1="26.1994" x2="10.2951" y2="57.6382" gradientUnits="userSpaceOnUse">
<stop stop-color="#FF3A44"/>
<stop offset="1" stop-color="#C31162"/>
</linearGradient>
<linearGradient id="paint3_linear_1_11881" x1="8.53614" y1="0.209989" x2="16.9041" y2="14.2511" gradientUnits="userSpaceOnUse">
<stop stop-color="#32A071"/>
<stop offset="0.0685" stop-color="#2DA771"/>
<stop offset="0.4762" stop-color="#15CF74"/>
<stop offset="0.8009" stop-color="#06E775"/>
<stop offset="1" stop-color="#00F076"/>
</linearGradient>
<clipPath id="clip0_1_11881">
<rect width="158.625" height="47" fill="white"/>
</clipPath>
</defs>
</svg>
