<svg width="63" height="66" viewBox="0 0 63 66" fill="none" xmlns="http://www.w3.org/2000/svg">
<path d="M19.975 41.4839C15.7842 44.0545 15.6156 46.5843 19.6487 46.4721C29.1443 46.2112 47.088 46.3322 54.542 45.1013C63.9491 43.5126 63.0528 40.3087 57.4911 35.1483C47.6717 26.0864 40.4887 16.7348 35.1988 11.9447C28.0175 5.44097 23.4962 10.4069 27.1509 15.3845C30.2318 19.5805 47.6956 38.795 48.8647 39.2662C50.6238 39.9373 24.2481 38.853 19.975 41.4839Z" fill="url(#paint0_linear_1_7782)"/>
<path d="M22.8689 35.9391C25.7444 36.2337 27.876 36.3775 29.4591 36.2915C39.9781 35.7859 32.4456 28.7169 30.9219 26.9865C26.7651 22.1875 16.3447 12.9969 15.2309 13.1183C10.8358 13.6861 13.8902 19.4844 23.5425 28.9224C24.5226 29.9123 23.8696 29.8853 17.8685 28.7831C10.4406 27.4623 8.42695 27.7378 6.61488 30.2713C4.68773 33.0792 8.60365 34.4467 22.8689 35.9391Z" fill="url(#paint1_linear_1_7782)"/>
<defs>
<linearGradient id="paint0_linear_1_7782" x1="10.3604" y1="38.3119" x2="50.6948" y2="18.1728" gradientUnits="userSpaceOnUse">
<stop offset="0.0810219" stop-color="#F3B795"/>
<stop offset="1" stop-color="#FF9B9B"/>
</linearGradient>
<linearGradient id="paint1_linear_1_7782" x1="4.65031" y1="30.7646" x2="28.2696" y2="18.6885" gradientUnits="userSpaceOnUse">
<stop offset="0.0810219" stop-color="#F3B795"/>
<stop offset="1" stop-color="#FF9B9B"/>
</linearGradient>
</defs>
</svg>
