<svg width="96" height="72" viewBox="0 0 96 72" fill="none" xmlns="http://www.w3.org/2000/svg">
<path fill-rule="evenodd" clip-rule="evenodd" d="M38.0509 52.7666C35.1326 54.0199 31.9275 54.387 28.7609 53.6336C21.1264 51.8172 16.2253 44.0844 16.648 35.4204C14.7205 35.031 12.7757 34.012 11.157 32.3992C7.43451 28.6902 6.8459 23.2456 9.84234 20.2382C12.8388 17.2307 18.2856 17.7994 22.0081 21.5083C22.1164 21.6162 22.222 21.7256 22.325 21.8363C26.3573 17.571 32.001 15.4729 37.5274 16.7878C41.6127 17.7597 44.9152 20.4257 47.0382 24.022C53.3465 19.7126 61.7232 18.0056 70.1625 20.0135C85.2169 23.5954 94.7698 37.642 91.4994 51.3875C88.229 65.1331 73.3737 73.3724 58.3193 69.7906C48.6406 67.4878 41.2359 60.8595 38.0509 52.7666Z" fill="#8EDEC1"/>
<path fill-rule="evenodd" clip-rule="evenodd" d="M93.6326 31.4347C89.7119 9.19752 67.7904 -2.55447 50.3909 8.28801L47.8797 9.88414L45.7918 7.2877C39.5262 -0.389492 26.2149 0.384783 23.3081 8.58655C22.8733 9.86173 22.2581 9.89652 21.349 8.7432C17.9817 4.41969 9.82048 4.75487 6.03202 9.39215C-2.71029 20.0849 6.30557 40.2542 18.105 36.3985C18.6126 36.2478 19.0912 36.9374 19.4849 38.4656C21.8053 47.2406 32.823 54.6893 38.9566 51.6476C39.9218 51.1761 40.1415 51.2959 40.3874 52.258C48.1674 87.194 99.8841 66.991 93.6326 31.4347ZM62.3078 60.8126C53.9468 60.4677 46.5771 55.6693 44.3318 46.3359C43.2562 41.9233 42.0146 40.7024 39.9629 41.9217C33.7465 45.7459 23.4545 38.2662 22.9739 29.5548C22.7249 25.4512 21.5104 23.446 20.0681 24.7986C17.0107 27.666 14.3812 27.8556 10.7808 25.4313C5.59653 21.9987 6.35536 16.1909 12.1618 14.5403C15.2611 13.6938 19.9746 16.2126 21.1485 19.3945C22.2245 22.1803 23.6299 21.8924 24.8592 18.6252C28.3661 9.21004 41.0069 8.4687 44.4366 17.4503C45.6144 20.5202 46.0604 20.5355 51.2305 17.9093C61.7961 12.6087 73.6556 15.0939 81.5366 21.2562C102.137 37.3381 81.929 61.6026 62.3078 60.8126Z" fill="black"/>
</svg>
