<svg width="249" height="228" viewBox="0 0 249 228" fill="none" xmlns="http://www.w3.org/2000/svg">
<g clip-path="url(#clip0_1_12810)">
<path d="M167.278 135.52C172.871 115.771 174.366 87.4042 168.865 66.1502C168.345 64.1411 170.866 62.5185 172.369 63.9496C209.008 98.8361 206.375 130.158 202.166 151.351C201.72 153.597 196.476 153.82 195.242 151.892C189.593 143.068 179.436 138.842 169.223 138.211C167.875 138.127 166.91 136.82 167.278 135.52Z" fill="#F26F21"/>
<path d="M113.633 105.196C127.103 87.8857 147.234 72.0241 158.384 64.379C159.595 63.5492 161.224 64.295 161.385 65.7536C163.303 83.1544 162.481 107.422 161.51 122.274C161.38 124.271 158.589 124.864 157.446 123.22C145.283 105.722 128.003 105.289 116.341 108.676C114.346 109.256 112.357 106.836 113.633 105.196Z" fill="#FFCA05"/>
<path d="M149.149 55.3207C105.948 50.1921 80.4058 74.6268 70.5717 91.5062C69.6238 93.1331 71.413 94.9344 73.2132 94.3826C86.2193 90.3962 97.2145 96.7618 102.88 102.224C103.931 103.237 105.74 103.026 106.476 101.766C115.302 86.6654 136.938 68.5498 150.028 58.8748C151.469 57.8101 150.928 55.5319 149.149 55.3207Z" fill="#3CAFE3"/>
<path d="M66.5917 87.1122C66.6036 88.3455 66.2988 89.4378 65.4487 90.4082C64.7767 91.1734 64.839 92.1638 65.3461 92.9759C65.8272 93.7602 66.6931 93.7964 67.5213 93.5581C68.1929 93.3645 68.8251 92.9908 69.5077 92.872C71.6682 92.4958 73.8396 92.03 76.0164 91.9148C79.122 91.7424 82.2446 91.7933 85.3588 91.8327C88.9459 91.8777 91.9998 93.4535 94.8444 95.4495C96.0689 96.3289 97.2134 97.3148 98.2646 98.3956C99.989 100.124 101.066 102.396 101.314 104.828C101.519 106.602 101.725 108.359 101.248 110.147C101.143 110.541 101.597 111.304 102.01 111.569C102.458 111.89 102.998 112.055 103.548 112.041C104.099 112.026 104.63 111.833 105.061 111.49C108.923 108.616 113.397 107.552 118.067 107.103C118.823 107.02 119.601 107.171 120.36 107.266C125.028 107.857 129.605 108.829 133.994 110.571C134.742 110.868 135.489 111.164 136.245 111.438C137.096 111.75 137.138 112.34 136.795 113.035C135.954 114.742 135.105 116.445 134.238 118.138C131.751 122.992 129.274 127.853 126.75 132.687C125.208 135.648 123.548 138.549 121.999 141.505C121.316 142.817 120.794 144.213 120.143 145.526C119.166 147.507 118.143 149.464 117.124 151.424C116.183 153.231 115.219 155.024 114.272 156.825C112.587 160.028 110.987 163.276 109.205 166.423C107.297 169.795 105.225 173.103 101.822 175.207C98.8263 177.06 95.6001 178.094 92.0038 177.382C89.9822 176.98 87.9046 176.872 86.0477 175.784C83.76 174.445 82.776 172.269 82.519 169.867C82.0986 165.929 82.6186 162.029 83.8579 158.243C84.2506 157.032 84.0849 156.679 82.6535 155.709C81.8559 155.163 80.98 155.214 80.3249 155.819C79.7293 156.369 79.1118 157.094 78.9298 157.854C77.9843 161.849 77.6214 165.94 78.258 169.984C78.6816 172.692 79.9443 175.182 82.1842 176.996C82.2715 177.1 82.342 177.218 82.3934 177.343L88.7589 180.658C90.5194 180.931 92.2626 181.324 94.0296 181.439C96.0794 181.572 98.1982 181.751 100.19 181.384C103.35 180.795 106.197 179.197 108.182 176.646C110.292 173.932 112.042 170.96 113.886 168.057C115.112 166.129 116.298 164.166 117.365 162.148C118.184 160.599 118.687 158.884 119.514 157.341C121.125 154.339 122.985 151.466 124.52 148.429C126.629 144.261 128.498 139.973 130.535 135.768C132.532 131.651 134.573 127.555 136.66 123.481C138.087 120.695 139.592 117.947 141.112 115.209C141.764 114.036 142.649 113.793 143.701 114.572C146.426 116.597 149.286 118.503 151.717 120.846C153.528 122.605 154.995 124.687 156.044 126.985C157.384 129.952 157.217 133.16 155.722 136.177C154.923 137.789 155.772 139.611 157.561 139.954C158.039 140.027 158.529 139.955 158.967 139.747C161.199 138.658 163.594 138.192 166.023 137.748C170.276 136.974 174.298 138.163 178.374 138.937C180.402 139.316 182.499 139.5 184.432 140.159C186.365 140.818 188.214 141.835 189.96 142.918C192.448 144.452 193.485 146.855 193.523 149.777C193.539 151.49 193.664 153.199 193.898 154.896C194.072 156.147 194.662 157.238 196.026 157.66C196.233 157.693 196.429 157.776 196.597 157.902C197.492 158.888 198.488 159.294 199.884 159.035C201.101 158.803 202.218 158.582 202.927 157.448C202.964 157.376 203.11 157.374 203.204 157.34L203.79 156.215C203.743 155.109 203.808 154.011 203.005 153.045C202.704 152.683 202.636 151.963 202.732 151.46C203.444 147.699 204.305 143.966 204.965 140.197C206.056 133.967 207.028 127.729 206.867 121.355C206.731 115.994 206.158 110.708 204.836 105.524C203.351 99.6875 201.034 94.0973 197.955 88.9254C194.525 83.1575 190.745 77.6487 186.251 72.6277C182.635 68.5861 178.829 64.774 174.334 61.7118C173.719 61.2533 173.161 60.7768 172.582 60.3321L157.8 52.6351C156.218 52.0736 154.642 51.4961 153.053 50.9571C148.53 49.4477 143.819 48.5718 139.054 48.3543C130.823 47.9143 122.8 48.8647 114.963 51.3867C109.848 53.0338 104.735 54.732 99.9926 57.2978C96.7627 59.0472 93.6119 60.9689 90.5665 63.0218C87.9785 64.7718 85.6441 66.8661 83.1141 68.6964C80.953 70.2614 78.9633 71.9084 77.2615 74.0437C74.3257 77.7406 71.0136 81.1462 67.8607 84.6752L66.5917 87.1122ZM157.684 56.3205L157.594 56.6073C159.11 57.3228 159.173 58.0013 157.808 58.973C157.694 59.0544 157.578 59.1319 157.451 59.2018C155.682 60.2796 153.836 61.2485 152.155 62.4486C146.681 66.3608 141.18 70.2471 135.856 74.3591C132.367 77.0551 129.165 80.1251 125.84 83.0353C125.285 83.5208 124.743 84.0226 124.229 84.5484C121.628 87.2092 119.142 90.0013 116.422 92.5213C113.032 95.6735 109.849 99.0407 106.892 102.602C106.649 102.895 106.252 103.058 105.923 103.289C105.726 102.948 105.427 102.637 105.349 102.275C104.945 100.397 104.841 98.4223 103.415 96.905C102.431 95.8567 101.543 94.7173 100.518 93.7119C97.7258 90.9665 94.3731 89.0373 90.6075 88.175C84.5243 86.7802 78.3385 87.1859 72.1791 87.8603C71.8747 87.8924 71.3886 87.8347 71.2776 87.6459C71.1418 87.4226 71.2152 86.939 71.3818 86.6922C72.4552 85.0875 73.4989 83.453 74.7084 81.9525C76.3798 79.8753 78.1575 77.882 79.9481 75.9049C81.3303 74.3261 82.7938 72.8206 84.3326 71.3945C85.8617 70.0247 87.6529 68.9462 89.1959 67.5861C93.8538 63.4872 99.201 60.5218 104.774 57.9218C106.063 57.3202 107.439 56.9147 108.772 56.396C109.157 56.2462 109.481 55.9479 109.882 55.8323C111.713 55.2657 113.554 54.7182 115.399 54.2038C117.989 53.4818 120.557 52.6008 123.198 52.1528C125.982 51.6796 128.84 51.6668 131.662 51.3945C136.194 50.9579 140.766 51.2884 145.186 52.372C149.425 53.4024 153.527 54.9805 157.684 56.3205ZM164.178 60.5669C164.843 60.6227 165.54 60.4947 166.031 60.7528C167.554 61.5507 169.03 62.4361 170.451 63.4047C174.486 66.203 178.173 69.473 181.434 73.1455C184.746 76.8336 187.664 80.8907 190.52 84.9515C192.361 87.5781 193.761 90.5067 195.399 93.2774C198.165 97.9681 199.634 103.144 201.007 108.35C201.41 109.861 201.435 111.461 201.769 112.991C202.816 117.794 202.752 122.662 202.396 127.503C202.068 131.969 201.411 136.416 200.745 140.847C200.545 142.144 200.526 143.659 199.238 144.59C198.102 142.277 196.697 140.233 194.499 138.836C194.192 138.663 193.922 138.429 193.709 138.148C192.735 136.671 191.242 136.149 189.616 135.841C187.692 135.484 185.766 135.14 183.845 134.768C182.512 134.51 181.196 134.128 179.852 133.959C177.044 133.607 174.232 133.334 171.402 133.086C170.22 132.985 169.022 133.062 167.832 133.031C166.983 133.008 166.694 132.612 166.85 131.719C167.816 126.467 168.661 121.203 168.827 115.842C168.993 110.481 169.523 105.205 169.596 99.8671C169.663 95.0697 169.404 90.2644 169.139 85.4703C169.022 83.3433 168.602 81.2257 168.196 79.1272C167.622 76.2068 166.94 73.2904 166.304 70.3738L164.178 60.5669ZM112.676 102.752C112.788 102.61 112.948 102.376 113.137 102.172C115.908 99.1902 118.641 96.1696 121.47 93.2459C123.522 91.1312 125.669 89.1087 127.837 87.111C131.608 83.6418 135.292 80.0653 139.261 76.8184C143.249 73.55 147.493 70.6013 151.682 67.5808C153.603 66.1765 155.63 64.9185 157.636 63.6251C158.659 62.9665 159.343 63.2011 159.779 64.3363C159.991 64.9213 160.16 65.5208 160.287 66.1302C161.118 69.7822 161.818 73.4709 162.782 77.0872C163.955 81.4845 164.423 85.9765 164.562 90.4738C164.728 95.8239 164.477 101.188 164.358 106.545C164.299 109.171 164.2 111.8 163.991 114.417C163.716 117.87 164.001 121.387 162.837 124.737C162.688 125.07 162.509 125.388 162.301 125.688C162.033 125.492 161.778 125.279 161.537 125.051C161.386 124.856 161.257 124.645 161.15 124.423C160.211 122.864 159.388 121.216 158.307 119.762C155.888 116.51 152.779 114.024 149.234 112.063C147.61 111.163 146.113 109.962 144.407 109.288C140.489 107.763 136.509 106.367 132.488 105.15C129.793 104.338 127.153 103.283 124.24 103.205C120.752 103.111 117.266 102.552 113.831 103.649C113.625 103.69 113.414 103.71 113.203 103.708C112.491 103.788 112.321 103.484 112.676 102.752Z" fill="black"/>
</g>
<defs>
<clipPath id="clip0_1_12810">
<rect width="188" height="178" fill="white" transform="matrix(-0.88696 -0.461847 -0.461847 0.88696 248.957 87.4541)"/>
</clipPath>
</defs>
</svg>
