<svg xmlns="http://www.w3.org/2000/svg" width="297" height="220" fill="none"><g stroke="#fff" clip-path="url(#a)" opacity=".4"><path d="m-41.7999 22.6551.002-.0031C-41.2034 21.7576-26.5344.5.31177.5 27.0765.5 42.1622 21.696 42.782 22.5908l.0005.0007c1.73 2.488 1.1071 5.9192-1.3973 7.6363l-.002.0013c-2.508 1.7372-5.949 1.123-7.6866-1.3868l-.007-.01-.0065-.0085s-.0022-.003-.0096-.013l-.0329-.0444a17.23965 17.23965 0 0 0-.1199-.1591c-.1036-.1359-.254-.3296-.4502-.5727-.3924-.4863-.9682-1.1705-1.72-1.9863-1.5031-1.631-3.7122-3.7904-6.5681-5.9454-5.7097-4.3086-14.0286-8.6165-24.47062-8.6165-8.6546 0-16.77518 2.8563-24.12978 8.4594l-.0001.0001c-2.8449 2.1679-5.0378 4.3627-6.5243 6.0238-.7435.8309-1.311 1.5291-1.6958 2.0249-.1924.2479-.3393.4454-.4398.5839-.0503.0692-.0892.124-.1166.1634-.0137.0195-.025.036-.0337.0488l-.0127.0191-.0036.0056c-1.0566 1.5593-2.8019 2.4039-4.5696 2.4039-1.0551 0-2.1357-.3028-3.0856-.9337-2.5338-1.6935-3.2021-5.1105-1.5001-7.6305ZM-41.7999 100.988l.002-.003c.5945-.894 15.2635-22.152 42.10967-22.152 26.76473 0 41.85043 21.196 42.47023 22.091l.0005.001c1.73 2.487 1.1071 5.919-1.3973 7.636l-.002.001c-2.508 1.737-5.949 1.123-7.6866-1.387l-.007-.01-.0065-.008s-.0022-.003-.0096-.013l-.0329-.045c-.0281-.037-.0681-.091-.1199-.159-.1036-.136-.254-.329-.4502-.572-.3924-.487-.9682-1.171-1.72-1.987-1.5031-1.631-3.7122-3.79-6.5681-5.9451-5.7097-4.3086-14.0286-8.6164-24.47062-8.6164-8.6546 0-16.77518 2.8562-24.12978 8.4593l-.0001.0001c-2.8449 2.1681-5.0378 4.3631-6.5243 6.0241-.7435.831-1.311 1.529-1.6958 2.025-.1924.247-.3393.445-.4398.584-.0503.069-.0892.124-.1166.163-.0137.019-.025.036-.0337.049l-.0127.019-.0036.005c-1.0566 1.56-2.8019 2.404-4.5696 2.404-1.0551 0-2.1357-.302-3.0856-.933-2.5338-1.694-3.2021-5.111-1.5001-7.631ZM-41.7999 179.322l.002-.003c.5945-.894 15.2635-22.152 42.10967-22.152 26.76473 0 41.85043 21.196 42.47023 22.091l.0005.001c1.73 2.487 1.1071 5.919-1.3973 7.636l-.002.001c-2.508 1.737-5.949 1.123-7.6866-1.387l-.007-.01-.0065-.008s-.0022-.003-.0096-.013l-.0329-.045c-.0281-.037-.0681-.091-.1199-.159-.1036-.136-.254-.329-.4502-.572-.3924-.487-.9682-1.171-1.72-1.987-1.5031-1.631-3.7122-3.79-6.5681-5.945-5.7097-4.309-14.0286-8.617-24.47062-8.617-8.6546 0-16.77518 2.857-24.12978 8.46h-.0001c-2.8449 2.168-5.0378 4.363-6.5243 6.024-.7435.831-1.311 1.529-1.6958 2.025-.1924.247-.3393.445-.4398.584-.0503.069-.0892.124-.1166.163-.0137.019-.025.036-.0337.049l-.0127.019-.0036.005c-1.0566 1.56-2.8019 2.404-4.5696 2.404-1.0551 0-2.1357-.303-3.0856-.933-2.5338-1.694-3.2021-5.111-1.5001-7.631ZM57.2001 22.6551l.002-.0031C57.7966 21.7576 72.4656.5 99.3118.5c26.7642 0 41.8502 21.196 42.4702 22.0908l.001.0007c1.73 2.488 1.107 5.9192-1.398 7.6363l-.002.0013c-2.508 1.7372-5.949 1.123-7.686-1.3868l-.007-.01-.007-.0085s-.002-.003-.01-.013l-.032-.0444c-.028-.0377-.069-.0912-.12-.1591-.104-.1359-.254-.3296-.451-.5727-.392-.4863-.968-1.1705-1.719-1.9863-1.504-1.631-3.713-3.7904-6.569-5.9454-5.709-4.3086-14.028-8.6165-24.4702-8.6165-8.6546 0-16.7752 2.8563-24.1298 8.4594l-.0001.0001c-2.8449 2.1679-5.0378 4.3627-6.5243 6.0238-.7435.8309-1.311 1.5291-1.6958 2.0249-.1924.2479-.3393.4454-.4398.5839-.0503.0692-.0892.124-.1166.1634-.0137.0195-.025.036-.0337.0488l-.0127.0191-.0036.0056c-1.0566 1.5593-2.8019 2.4039-4.5696 2.4039-1.0551 0-2.1357-.3028-3.0856-.9337-2.5338-1.6935-3.2021-5.1105-1.5001-7.6305ZM57.2001 100.988l.002-.003c.5945-.894 15.2635-22.152 42.1097-22.152 26.7642 0 41.8502 21.196 42.4702 22.091l.001.001c1.73 2.487 1.107 5.919-1.398 7.636l-.002.001c-2.508 1.737-5.949 1.123-7.686-1.387l-.007-.01-.007-.008s-.002-.003-.01-.013l-.032-.045c-.028-.037-.069-.091-.12-.159-.104-.136-.254-.329-.451-.572-.392-.487-.968-1.171-1.719-1.987-1.504-1.631-3.713-3.79-6.569-5.9451-5.709-4.3086-14.028-8.6164-24.4702-8.6164-8.6546 0-16.7752 2.8562-24.1298 8.4593l-.0001.0001c-2.8449 2.1681-5.0378 4.3631-6.5243 6.0241-.7435.831-1.311 1.529-1.6958 2.025-.1924.247-.3393.445-.4398.584-.0503.069-.0892.124-.1166.163-.0137.019-.025.036-.0337.049l-.0127.019-.0036.005c-1.0566 1.56-2.8019 2.404-4.5696 2.404-1.0551 0-2.1357-.302-3.0856-.933-2.5338-1.694-3.2021-5.111-1.5001-7.631ZM57.2001 179.322l.002-.003c.5945-.894 15.2635-22.152 42.1097-22.152 26.7642 0 41.8502 21.196 42.4702 22.091l.001.001c1.73 2.487 1.107 5.919-1.398 7.636l-.002.001c-2.508 1.737-5.949 1.123-7.686-1.387l-.007-.01-.007-.008s-.002-.003-.01-.013l-.032-.045c-.028-.037-.069-.091-.12-.159-.104-.136-.254-.329-.451-.572-.392-.487-.968-1.171-1.719-1.987-1.504-1.631-3.713-3.79-6.569-5.945-5.709-4.309-14.028-8.617-24.4702-8.617-8.6546 0-16.7752 2.857-24.1298 8.46h-.0001c-2.8449 2.168-5.0378 4.363-6.5243 6.024-.7435.831-1.311 1.529-1.6958 2.025-.1924.247-.3393.445-.4398.584-.0503.069-.0892.124-.1166.163-.0137.019-.025.036-.0337.049l-.0127.019-.0036.005c-1.0566 1.56-2.8019 2.404-4.5696 2.404-1.0551 0-2.1357-.303-3.0856-.933-2.5338-1.694-3.2021-5.111-1.5001-7.631ZM156.2 22.6551l.002-.0031C156.797 21.7576 171.466.5 198.312.5c26.764 0 41.85 21.196 42.47 22.0908l.001.0007c1.73 2.488 1.107 5.9192-1.398 7.6363l-.002.0013c-2.508 1.7372-5.949 1.123-7.686-1.3868l-.007-.01-.007-.0085s-.002-.003-.01-.013l-.032-.0444c-.028-.0377-.069-.0912-.12-.1591-.104-.1359-.254-.3296-.451-.5727-.392-.4863-.968-1.1705-1.719-1.9863-1.504-1.631-3.713-3.7904-6.569-5.9454-5.709-4.3086-14.028-8.6165-24.47-8.6165-8.655 0-16.775 2.8563-24.13 8.4594v.0001c-2.845 2.1679-5.038 4.3627-6.524 6.0238-.744.8309-1.311 1.5291-1.696 2.0249-.193.2479-.34.4454-.44.5839-.05.0692-.089.124-.117.1634-.013.0195-.025.036-.033.0488l-.013.0191-.004.0056c-1.056 1.5593-2.801 2.4039-4.569 2.4039-1.055 0-2.136-.3028-3.086-.9337-2.534-1.6935-3.202-5.1105-1.5-7.6305ZM156.2 100.988l.002-.003c.595-.894 15.264-22.152 42.11-22.152 26.764 0 41.85 21.196 42.47 22.091l.001.001c1.73 2.487 1.107 5.919-1.398 7.636l-.002.001c-2.508 1.737-5.949 1.123-7.686-1.387l-.007-.01-.007-.008s-.002-.003-.01-.013l-.032-.045c-.028-.037-.069-.091-.12-.159-.104-.136-.254-.329-.451-.572-.392-.487-.968-1.171-1.719-1.987-1.504-1.631-3.713-3.79-6.569-5.9451-5.709-4.3086-14.028-8.6164-24.47-8.6164-8.655 0-16.775 2.8562-24.13 8.4593v.0001c-2.845 2.1681-5.038 4.3631-6.524 6.0241-.744.831-1.311 1.529-1.696 2.025-.193.247-.34.445-.44.584-.05.069-.089.124-.117.163-.013.019-.025.036-.033.049l-.013.019-.004.005c-1.056 1.56-2.801 2.404-4.569 2.404-1.055 0-2.136-.302-3.086-.933-2.534-1.694-3.202-5.111-1.5-7.631ZM156.2 179.322l.002-.003c.595-.894 15.264-22.152 42.11-22.152 26.764 0 41.85 21.196 42.47 22.091l.001.001c1.73 2.487 1.107 5.919-1.398 7.636l-.002.001c-2.508 1.737-5.949 1.123-7.686-1.387l-.007-.01-.007-.008s-.002-.003-.01-.013l-.032-.045c-.028-.037-.069-.091-.12-.159-.104-.136-.254-.329-.451-.572-.392-.487-.968-1.171-1.719-1.987-1.504-1.631-3.713-3.79-6.569-5.945-5.709-4.309-14.028-8.617-24.47-8.617-8.655 0-16.775 2.857-24.13 8.46-2.845 2.168-5.038 4.363-6.524 6.024-.744.831-1.311 1.529-1.696 2.025-.193.247-.34.445-.44.584-.05.069-.089.124-.117.163-.013.019-.025.036-.033.049l-.013.019-.004.005c-1.056 1.56-2.801 2.404-4.569 2.404-1.055 0-2.136-.303-3.086-.933-2.534-1.694-3.202-5.111-1.5-7.631ZM255.2 22.6551l.002-.0031C255.797 21.7576 270.466.5 297.312.5c26.764 0 41.85 21.196 42.47 22.0908l.001.0007c1.73 2.488 1.107 5.9192-1.398 7.6363l-.002.0013c-2.508 1.7372-5.949 1.123-7.686-1.3868l-.007-.01-.007-.0085s-.002-.003-.01-.013l-.032-.0444c-.028-.0377-.069-.0912-.12-.1591-.104-.1359-.254-.3296-.451-.5727-.392-.4863-.968-1.1705-1.719-1.9863-1.504-1.631-3.713-3.7904-6.569-5.9454-5.709-4.3086-14.028-8.6165-24.47-8.6165-8.655 0-16.775 2.8563-24.13 8.4594v.0001c-2.845 2.1679-5.038 4.3627-6.524 6.0238-.744.8309-1.311 1.5291-1.696 2.0249-.193.2479-.34.4454-.44.5839-.05.0692-.089.124-.117.1634-.013.0195-.025.036-.033.0488l-.013.0191-.004.0056c-1.056 1.5593-2.801 2.4039-4.569 2.4039-1.055 0-2.136-.3028-3.086-.9337-2.534-1.6935-3.202-5.1105-1.5-7.6305ZM255.2 100.988l.002-.003c.595-.894 15.264-22.152 42.11-22.152 26.764 0 41.85 21.196 42.47 22.091l.001.001c1.73 2.487 1.107 5.919-1.398 7.636l-.002.001c-2.508 1.737-5.949 1.123-7.686-1.387l-.007-.01-.007-.008s-.002-.003-.01-.013l-.032-.045c-.028-.037-.069-.091-.12-.159-.104-.136-.254-.329-.451-.572-.392-.487-.968-1.171-1.719-1.987-1.504-1.631-3.713-3.79-6.569-5.9451-5.709-4.3086-14.028-8.6164-24.47-8.6164-8.655 0-16.775 2.8562-24.13 8.4593v.0001c-2.845 2.1681-5.038 4.3631-6.524 6.0241-.744.831-1.311 1.529-1.696 2.025-.193.247-.34.445-.44.584-.05.069-.089.124-.117.163-.013.019-.025.036-.033.049l-.013.019-.004.005c-1.056 1.56-2.801 2.404-4.569 2.404-1.055 0-2.136-.302-3.086-.933-2.534-1.694-3.202-5.111-1.5-7.631ZM255.2 179.322l.002-.003c.595-.894 15.264-22.152 42.11-22.152 26.764 0 41.85 21.196 42.47 22.091l.001.001c1.73 2.487 1.107 5.919-1.398 7.636l-.002.001c-2.508 1.737-5.949 1.123-7.686-1.387l-.007-.01-.007-.008s-.002-.003-.01-.013l-.032-.045c-.028-.037-.069-.091-.12-.159-.104-.136-.254-.329-.451-.572-.392-.487-.968-1.171-1.719-1.987-1.504-1.631-3.713-3.79-6.569-5.945-5.709-4.309-14.028-8.617-24.47-8.617-8.655 0-16.775 2.857-24.13 8.46-2.845 2.168-5.038 4.363-6.524 6.024-.744.831-1.311 1.529-1.696 2.025-.193.247-.34.445-.44.584-.05.069-.089.124-.117.163-.013.019-.025.036-.033.049l-.013.019-.004.005c-1.056 1.56-2.801 2.404-4.569 2.404-1.055 0-2.136-.303-3.086-.933-2.534-1.694-3.202-5.111-1.5-7.631ZM1.44146 40.8518l.00206.0031c.59443.8944 15.26348 22.1519 42.10968 22.1519 26.7647 0 41.8504-21.196 42.4702-22.0908l.0005-.0007c1.73-2.4879 1.1071-5.9192-1.3973-7.6362l-.002-.0014c-2.5081-1.7371-5.949-1.123-7.6866 1.3868l-.007.01-.0065.0086s-.0022.003-.0096.013l-.0329.0443c-.0281.0378-.0681.0912-.1199.1591-.1036.1359-.254.3296-.4502.5728-.3924.4863-.9682 1.1705-1.72 1.9862-1.5031 1.631-3.7122 3.7904-6.5681 5.9455-5.7097 4.3085-14.0286 8.6164-24.4706 8.6164-8.6546 0-16.7753-2.8563-24.1298-8.4594h-.0001c-2.8449-2.168-5.0378-4.3628-6.5243-6.0239-.7435-.8308-1.311-1.529-1.6958-2.0248-.1924-.2479-.3393-.4455-.4399-.584-.0502-.0692-.0891-.124-.1165-.1633a3.69012 3.69012 0 0 1-.0337-.0489l-.0127-.0191-.0036-.0056c-1.05664-1.5593-2.8019-2.4039-4.56959-2.4039-1.05515 0-2.13568.3028-3.08564.9338-2.5338 1.6934-3.20211 5.1104-1.50011 7.6305ZM1.4414 119.185l.00205.003c.59443.894 15.26345 22.152 42.10965 22.152 26.7647 0 41.8504-21.196 42.4703-22.091l.0005-.001c1.73-2.488 1.107-5.919-1.3974-7.636l-.0019-.001c-2.5081-1.737-5.9491-1.123-7.6867 1.386l-.0069.011-.0066.008s-.0022.003-.0096.013l-.0328.044c-.0282.038-.0682.092-.12.16-.1036.135-.254.329-.4502.572-.3924.487-.9682 1.171-1.72 1.987-1.5031 1.631-3.7121 3.79-6.5681 5.945-5.7097 4.309-14.0286 8.616-24.4706 8.616-8.6546 0-16.7752-2.856-24.1298-8.459h-.0001c-2.8449-2.168-5.0378-4.363-6.5243-6.024-.7435-.831-1.311-1.529-1.6958-2.025-.1924-.248-.3393-.445-.4398-.584-.0502-.069-.0892-.124-.1166-.163-.0136-.02-.0249-.036-.0336-.049l-.0127-.019-.0036-.006c-1.05671-1.559-2.80196-2.403-4.56965-2.403-1.05515 0-2.13568.302-3.08564.933-2.5338 1.694-3.20212 5.111-1.50011 7.631ZM1.4414 197.519l.00205.003c.59443.894 15.26345 22.152 42.10965 22.152 26.7647 0 41.8504-21.196 42.4703-22.091l.0005-.001c1.73-2.488 1.107-5.919-1.3974-7.636l-.0019-.001c-2.5081-1.737-5.9491-1.123-7.6867 1.386l-.0069.011-.0066.008s-.0022.003-.0096.013l-.0328.044c-.0282.038-.0682.092-.12.16-.1036.135-.254.329-.4502.572-.3924.487-.9682 1.171-1.72 1.986-1.5031 1.631-3.7121 3.791-6.5681 5.946-5.7097 4.308-14.0286 8.616-24.4706 8.616-8.6546 0-16.7752-2.856-24.1298-8.459h-.0001c-2.8449-2.168-5.0378-4.363-6.5243-6.024-.7435-.831-1.311-1.529-1.6958-2.025-.1924-.248-.3393-.445-.4398-.584-.0502-.069-.0892-.124-.1166-.163-.0136-.02-.0249-.036-.0336-.049l-.0127-.019-.0036-.006c-1.05671-1.559-2.80196-2.404-4.56965-2.404-1.05515 0-2.13568.303-3.08564.934-2.5338 1.694-3.20212 5.111-1.50011 7.631ZM100.441 40.8518l.003.0031c.594.8944 15.263 22.1519 42.109 22.1519 26.765 0 41.851-21.196 42.47-22.0908l.001-.0007c1.73-2.4879 1.107-5.9192-1.397-7.6362l-.002-.0014c-2.508-1.7371-5.949-1.123-7.687 1.3868l-.007.01-.007.0086s-.002.003-.009.013l-.033.0443c-.028.0378-.068.0912-.12.1591-.104.1359-.254.3296-.45.5728-.393.4863-.968 1.1705-1.72 1.9862-1.503 1.631-3.712 3.7904-6.568 5.9455-5.71 4.3085-14.029 8.6164-24.471 8.6164-8.654 0-16.775-2.8563-24.13-8.4594-2.845-2.168-5.037-4.3628-6.524-6.0239-.743-.8308-1.311-1.529-1.696-2.0248-.192-.2479-.339-.4455-.44-.584-.05-.0692-.089-.124-.116-.1633-.014-.0196-.025-.036-.034-.0489l-.013-.0191-.003-.0056c-1.057-1.5593-2.802-2.4039-4.57-2.4039-1.055 0-2.135.3028-3.085.9338-2.5342 1.6934-3.2025 5.1104-1.501 7.6305ZM100.441 119.185l.002.003c.595.894 15.264 22.152 42.11 22.152 26.765 0 41.851-21.196 42.47-22.091l.001-.001c1.73-2.488 1.107-5.919-1.397-7.636l-.002-.001c-2.509-1.737-5.95-1.123-7.687 1.386l-.007.011-.007.008s-.002.003-.009.013l-.033.044c-.028.038-.068.092-.12.16-.104.135-.254.329-.45.572-.393.487-.968 1.171-1.72 1.987-1.503 1.631-3.712 3.79-6.568 5.945-5.71 4.309-14.029 8.616-24.471 8.616-8.654 0-16.775-2.856-24.13-8.459-2.845-2.168-5.038-4.363-6.524-6.024-.744-.831-1.311-1.529-1.696-2.025-.192-.248-.339-.445-.44-.584-.05-.069-.089-.124-.116-.163-.014-.02-.025-.036-.034-.049l-.013-.019-.003-.006c-1.057-1.559-2.802-2.403-4.57-2.403-1.055 0-2.136.302-3.085.933-2.5343 1.694-3.2026 5.111-1.501 7.631ZM100.441 197.519l.002.003c.595.894 15.264 22.152 42.11 22.152 26.765 0 41.851-21.196 42.47-22.091l.001-.001c1.73-2.488 1.107-5.919-1.397-7.636l-.002-.001c-2.509-1.737-5.95-1.123-7.687 1.386l-.007.011-.007.008s-.002.003-.009.013l-.033.044c-.028.038-.068.092-.12.16-.104.135-.254.329-.45.572-.393.487-.968 1.171-1.72 1.986-1.503 1.631-3.712 3.791-6.568 5.946-5.71 4.308-14.029 8.616-24.471 8.616-8.654 0-16.775-2.856-24.13-8.459-2.845-2.168-5.038-4.363-6.524-6.024-.744-.831-1.311-1.529-1.696-2.025-.192-.248-.339-.445-.44-.584-.05-.069-.089-.124-.116-.163-.014-.02-.025-.036-.034-.049l-.013-.019-.003-.006c-1.057-1.559-2.802-2.404-4.57-2.404-1.055 0-2.136.303-3.085.934-2.5343 1.694-3.2026 5.111-1.501 7.631ZM199.441 40.8518l.003.0031c.594.8944 15.263 22.1519 42.109 22.1519 26.765 0 41.851-21.196 42.47-22.0908l.001-.0007c1.73-2.4879 1.107-5.9192-1.397-7.6362l-.002-.0014c-2.508-1.7371-5.949-1.123-7.687 1.3868l-.007.01-.007.0086s-.002.003-.009.013l-.033.0443c-.028.0378-.068.0912-.12.1591-.104.1359-.254.3296-.45.5728-.393.4863-.968 1.1705-1.72 1.9862-1.503 1.631-3.712 3.7904-6.568 5.9455-5.71 4.3085-14.029 8.6164-24.471 8.6164-8.654 0-16.775-2.8563-24.13-8.4594-2.845-2.168-5.037-4.3628-6.524-6.0239-.743-.8308-1.311-1.529-1.696-2.0248-.192-.2479-.339-.4455-.44-.584-.05-.0692-.089-.124-.116-.1633-.014-.0196-.025-.036-.034-.0489l-.013-.0191-.003-.0056c-1.057-1.5593-2.802-2.4039-4.57-2.4039-1.055 0-2.135.3028-3.085.9338-2.534 1.6934-3.203 5.1104-1.501 7.6305ZM199.441 119.185l.002.003c.595.894 15.264 22.152 42.11 22.152 26.765 0 41.851-21.196 42.47-22.091l.001-.001c1.73-2.488 1.107-5.919-1.397-7.636l-.002-.001c-2.509-1.737-5.95-1.123-7.687 1.386l-.007.011-.007.008s-.002.003-.009.013l-.033.044c-.028.038-.068.092-.12.16-.104.135-.254.329-.45.572-.393.487-.968 1.171-1.72 1.987-1.503 1.631-3.712 3.79-6.568 5.945-5.71 4.309-14.029 8.616-24.471 8.616-8.654 0-16.775-2.856-24.13-8.459-2.845-2.168-5.038-4.363-6.524-6.024-.744-.831-1.311-1.529-1.696-2.025-.192-.248-.339-.445-.44-.584-.05-.069-.089-.124-.116-.163-.014-.02-.025-.036-.034-.049l-.013-.019-.003-.006c-1.057-1.559-2.802-2.403-4.57-2.403-1.055 0-2.136.302-3.085.933-2.534 1.694-3.203 5.111-1.501 7.631ZM199.441 197.519l.002.003c.595.894 15.264 22.152 42.11 22.152 26.765 0 41.851-21.196 42.47-22.091l.001-.001c1.73-2.488 1.107-5.919-1.397-7.636l-.002-.001c-2.509-1.737-5.95-1.123-7.687 1.386l-.007.011-.007.008s-.002.003-.009.013l-.033.044c-.028.038-.068.092-.12.16-.104.135-.254.329-.45.572-.393.487-.968 1.171-1.72 1.986-1.503 1.631-3.712 3.791-6.568 5.946-5.71 4.308-14.029 8.616-24.471 8.616-8.654 0-16.775-2.856-24.13-8.459-2.845-2.168-5.038-4.363-6.524-6.024-.744-.831-1.311-1.529-1.696-2.025-.192-.248-.339-.445-.44-.584-.05-.069-.089-.124-.116-.163-.014-.02-.025-.036-.034-.049l-.013-.019-.003-.006c-1.057-1.559-2.802-2.404-4.57-2.404-1.055 0-2.136.303-3.085.934-2.534 1.694-3.203 5.111-1.501 7.631ZM298.441 40.8518l.003.0031c.594.8944 15.263 22.1519 42.109 22.1519 26.765 0 41.851-21.196 42.47-22.0908l.001-.0007c1.73-2.4879 1.107-5.9192-1.397-7.6362l-.002-.0014c-2.508-1.7371-5.949-1.123-7.687 1.3868l-.007.01-.007.0086s-.002.003-.009.013l-.033.0443c-.028.0378-.068.0912-.12.1591-.104.1359-.254.3296-.45.5728-.393.4863-.968 1.1705-1.72 1.9862-1.503 1.631-3.712 3.7904-6.568 5.9455-5.71 4.3085-14.029 8.6164-24.471 8.6164-8.654 0-16.775-2.8563-24.13-8.4594-2.845-2.168-5.037-4.3628-6.524-6.0239-.743-.8308-1.311-1.529-1.696-2.0248-.192-.2479-.339-.4455-.44-.584-.05-.0692-.089-.124-.116-.1633-.014-.0196-.025-.036-.034-.0489l-.013-.0191-.003-.0056c-1.057-1.5593-2.802-2.4039-4.57-2.4039-1.055 0-2.135.3028-3.085.9338-2.534 1.6934-3.203 5.1104-1.501 7.6305ZM298.441 119.185l.002.003c.595.894 15.264 22.152 42.11 22.152 26.765 0 41.851-21.196 42.47-22.091l.001-.001c1.73-2.488 1.107-5.919-1.397-7.636l-.002-.001c-2.509-1.737-5.95-1.123-7.687 1.386l-.007.011-.007.008s-.002.003-.009.013l-.033.044c-.028.038-.068.092-.12.16-.104.135-.254.329-.45.572-.393.487-.968 1.171-1.72 1.987-1.503 1.631-3.712 3.79-6.568 5.945-5.71 4.309-14.029 8.616-24.471 8.616-8.654 0-16.775-2.856-24.13-8.459-2.845-2.168-5.038-4.363-6.524-6.024-.744-.831-1.311-1.529-1.696-2.025-.192-.248-.339-.445-.44-.584-.05-.069-.089-.124-.116-.163-.014-.02-.025-.036-.034-.049l-.013-.019-.003-.006c-1.057-1.559-2.802-2.403-4.57-2.403-1.055 0-2.136.302-3.085.933-2.534 1.694-3.203 5.111-1.501 7.631ZM298.441 197.519l.002.003c.595.894 15.264 22.152 42.11 22.152 26.765 0 41.851-21.196 42.47-22.091l.001-.001c1.73-2.488 1.107-5.919-1.397-7.636l-.002-.001c-2.509-1.737-5.95-1.123-7.687 1.386l-.007.011-.007.008s-.002.003-.009.013l-.033.044c-.028.038-.068.092-.12.16-.104.135-.254.329-.45.572-.393.487-.968 1.171-1.72 1.986-1.503 1.631-3.712 3.791-6.568 5.946-5.71 4.308-14.029 8.616-24.471 8.616-8.654 0-16.775-2.856-24.13-8.459-2.845-2.168-5.038-4.363-6.524-6.024-.744-.831-1.311-1.529-1.696-2.025-.192-.248-.339-.445-.44-.584-.05-.069-.089-.124-.116-.163-.014-.02-.025-.036-.034-.049l-.013-.019-.003-.006c-1.057-1.559-2.802-2.404-4.57-2.404-1.055 0-2.136.303-3.085.934-2.534 1.694-3.203 5.111-1.501 7.631Z"/></g><defs><clipPath id="a"><path fill="#fff" d="M0 0h297v220H0z"/></clipPath></defs></svg>