<svg width="13" height="23" viewBox="0 0 13 23" fill="none" xmlns="http://www.w3.org/2000/svg">
<path fill-rule="evenodd" clip-rule="evenodd" d="M0.381454 0.475586C0.568068 0.272042 0.884353 0.258318 1.0879 0.444931L11.7895 10.2564C12.3999 10.821 12.4081 11.8017 11.7865 12.3633C11.7858 12.3639 11.7852 12.3645 11.7845 12.3651L1.08808 22.1819C0.884634 22.3686 0.568343 22.355 0.381626 22.1516C0.194909 21.9481 0.208473 21.6318 0.411922 21.4451L11.1155 11.6218C11.2917 11.4633 11.2995 11.166 11.1111 10.9911C11.1109 10.9909 11.1113 10.9912 11.1111 10.9911L0.412109 1.18203C0.208566 0.995414 0.194841 0.67913 0.381454 0.475586Z" fill="#222222"/>
</svg>
