<svg width="249" height="209" viewBox="0 0 249 209" fill="none" xmlns="http://www.w3.org/2000/svg">
<path fill-rule="evenodd" clip-rule="evenodd" d="M27.8885 48.9332C20.6502 60.6663 25.4924 97.166 37.6273 122.208C54.7993 157.616 78.0035 165.589 113.692 148.275C132.579 139.16 162.008 123.876 162.118 124.426C162.145 124.564 160.278 128.723 157.933 133.693C150.397 149.632 149.022 157.698 153.279 160.57C154.998 161.73 155.666 160.811 159.659 151.295C159.713 151.213 165.287 137.523 177.349 114.751C184.396 101.34 179.118 102.603 167.348 104.727C155.018 106.891 147.217 107.226 137.764 107.102C132.431 107.018 125.229 106.09 125.504 112.827C125.725 118.216 135.41 120.939 151.068 119.472C157.26 118.885 156.796 119.406 145.723 124.68C140.281 127.263 132.617 131.145 128.704 133.21C85.8972 156.085 65.2859 151.172 46.9266 113.712C40.3882 100.427 33.4218 73.5709 33.3902 61.9954C33.3994 49.9114 30.9556 44.0342 27.8885 48.9332Z" fill="#333333"/>
<path d="M224.4 116.227C223.546 117.567 225.708 119.036 227.849 118.543C229.104 118.254 232.942 115.934 232.923 115.49C232.789 112.766 226.279 113.322 224.4 116.227Z" fill="#F5EFF5"/>
<path d="M206.337 119.597C210.665 118.479 236.762 104.698 238.64 102.566C239.661 101.415 237.185 99.8185 235.335 100.409C233.171 101.064 213.898 111.905 205.384 117.39C204.201 118.131 204.992 119.928 206.337 119.597Z" fill="#F5EFF5"/>
<path d="M43.0318 60.9763C43.3391 65.5954 43.8379 66.7012 45.1615 65.8234C47.7815 64.1153 46.8323 61.4903 46.6151 57.4271C46.4456 54.6516 42.7697 57.2654 43.0318 60.9763Z" fill="#AE94E5"/>
<path d="M45.3746 50.3184C45.4107 48.0076 44.9749 43.2831 44.0775 33.2208C42.8405 19.3085 42.39 10.8262 41.9159 9.29352L41.5663 8.14737C40.152 8.68949 39.0402 8.86977 38.8673 13.1184C38.6096 18.8306 40.7087 40.4535 42.1858 48.9586C42.974 53.7279 45.3187 53.8151 45.3746 50.3184Z" fill="#AE94E5"/>
<path d="M203.041 127.956C200.32 129.801 193.762 133.386 191.914 134.336C191.13 134.803 192.918 135.418 193.938 135.04C211.292 128.532 227.671 118.821 222.803 118.123C220.775 117.832 210.202 123.05 203.041 127.956Z" fill="#F5EFF5"/>
<path d="M194.666 126.699C202.027 123.863 203.519 122.698 201.402 121.29C199.738 120.196 199.162 120.362 193.736 123.365C186.63 127.313 188.881 128.933 194.666 126.699Z" fill="#F5EFF5"/>
<path d="M231.965 94.6536C235.304 93.1179 235.961 91.9979 234.2 90.807C232.316 89.5156 229.093 90.4332 227.299 92.7425C226.379 93.9628 230.133 95.4948 231.965 94.6536Z" fill="#F5EFF5"/>
<path d="M196.852 114.345C200.136 112.609 207.854 108.251 215.795 104.45C226.789 99.1831 229.078 97.2759 226.15 95.9453C224.362 95.1368 219.813 97.4098 211.38 103.486C208.331 105.698 200.547 110.515 196.462 112.827C194.24 114.081 194.641 115.519 196.852 114.345Z" fill="#F5EFF5"/>
</svg>
