<svg width="198" height="179" viewBox="0 0 198 179" fill="none" xmlns="http://www.w3.org/2000/svg">
<path fill-rule="evenodd" clip-rule="evenodd" d="M166.767 54.0294C155.715 51.1299 133.241 42.7186 130.335 40.4028C128.701 39.1002 126.71 38.7104 126.017 39.5795C124.486 41.5006 129.715 46.864 136.048 49.8168C140.246 51.8158 140.282 51.7702 133.808 51.6965C118.794 51.624 90.92 58.6536 86.7377 63.6222C85.4894 65.0955 59.1614 55.9314 24.1923 85.2791C13.6014 94.1905 5.98235 109.434 10.6514 112.332C11.4508 112.82 12.424 112.623 13.0162 111.973L18.501 105.65C47.8942 71.9333 77.6755 71.7333 77.7574 71.7238C77.5655 72.244 68.0016 81.4503 76.5802 95.4666C80.3616 101.621 86.7465 106.186 94.058 105.955C117.484 105.252 122.073 80.8619 100.931 69.8476C98.0782 68.3968 97.814 68.6352 104.775 65.9555C116.75 61.363 135.45 59.138 152.653 60.2823C159.045 60.7391 159.072 60.6112 150.982 64.3354C131.907 72.9928 124.681 81.5944 137.04 80.8981C139.841 80.7369 140.915 80.3213 153.775 73.966C158.69 71.5253 166.443 68.1307 170.984 66.4389C179.501 63.2043 180.265 62.6173 178.896 60.3296C177.137 57.5065 174.321 56.01 166.767 54.0294ZM106.203 81.6779C110.263 89.6254 101.356 97.635 88.4341 97.7333C81.9322 97.7872 78.9879 91.3273 82.1017 83.7868C83.9736 79.2952 90.5139 72.7651 92.7592 73.2081C98.0773 74.0807 104.4 78.0718 106.203 81.6779Z" fill="#333333"/>
<path d="M188.293 77.4851C186.706 80.1973 185.227 81.1287 183.268 80.6448C179.1 79.607 177.513 80.5136 175.541 85.0445C174.035 88.5095 173.152 89.5318 171.248 89.945C168.66 90.5171 171.859 92.499 174.295 91.4252C176.076 90.6398 176.826 89.7006 177.969 86.7972C179.737 82.3268 180.769 81.5506 183.801 82.3734C187.442 83.3792 189.817 82.1192 191.357 78.401C192.165 76.4986 189.819 74.8968 188.293 77.4851Z" fill="#FBCDEA"/>
<path d="M167.81 32.2955C168.643 32.4474 170.591 32.4468 172.102 32.305C176.261 31.8847 176.673 32.1089 177.534 35.1687C179.13 40.8967 184.456 44.861 188.635 43.4139C192.207 42.2091 190.967 39.3522 187.044 39.7712C182.87 40.2139 181.155 39.1706 180.045 35.4649C178.328 29.7184 175.342 27.5753 170.043 28.2311C165.4 28.8133 164.01 28.1669 163.992 25.4344C163.974 23.0366 162.071 20.2151 161.248 21.38C159.2 24.2318 163.607 31.5426 167.81 32.2955Z" fill="#E597E5"/>
</svg>
