<svg width="252" height="211" viewBox="0 0 252 211" fill="none" xmlns="http://www.w3.org/2000/svg">
<path d="M6.51163 175.658C13.1043 171.422 22.2646 170.447 35.0684 172.666C46.6577 174.649 59.6695 173.573 65.5335 170.111C69.5932 167.724 64.5963 166.715 58.2118 168.632C50.8558 170.85 43.2569 171.086 33.4721 169.371C19.3152 166.917 6.61576 168.43 0.925252 173.271C-2.09349 175.792 2.93771 177.944 6.51163 175.658Z" fill="#9FF2ED"/>
<path d="M243.505 38.0877C229.941 40.3648 223.29 36.3865 212.085 29.628C203.545 24.4758 186.254 22.5842 179.337 26.0848C175.144 28.2084 177.753 31.1405 182.682 29.5798C192.606 26.4774 205.567 28.5824 216.154 34.9885C227.439 41.8407 235.339 43.7036 246.383 42.0853C254.84 40.8593 249.572 37.0633 243.505 38.0877Z" fill="#9FB8F2"/>
<path fill-rule="evenodd" clip-rule="evenodd" d="M35.727 94.3158C35.7312 96.0269 43.3992 104.038 46.524 105.69C47.2341 106.066 49.2588 105.157 51.5101 103.649C55.1436 101.072 68.4821 93.3722 77.8997 88.2762C91.0457 81.2839 107.663 80.4441 108.704 78.4756C116.359 63.9936 154.364 50.7137 177.566 54.4338C204.45 58.7514 197.336 71.1806 181.402 67.975C160.468 63.7446 141.346 66.2291 124.323 75.3993C118.6 78.4905 118.63 78.7762 124.535 79.4687C153.87 83.1032 155.229 123.847 126.308 132.665C106.835 138.562 91.5411 118.334 98.2026 95.5909C99.7692 90.3927 82.6462 95.2827 65.8296 104.922C51.7306 113.029 52.3928 112.12 56.6206 116.154C74.9464 133.397 73.7722 138.713 51.4037 140.29C41.386 141.021 27.8262 145.186 13.0301 152.206C7.35119 154.87 7.24145 151.125 12.6647 142.928C18.6386 134.034 24.1984 120.422 27.0433 108.165C31.2387 90.7743 35.7024 91.7841 35.727 94.3158ZM104.273 98.8897C103.306 116.189 124.419 128.158 137.164 117.626C145.358 110.894 134.017 94.0157 119.823 91.819C108.452 90.1254 104.618 91.8768 104.273 98.8897Z" fill="#333333"/>
</svg>
