<svg width="289" height="301" viewBox="0 0 289 301" fill="none" xmlns="http://www.w3.org/2000/svg">
<path d="M193.225 47.4576C180.199 43.0424 176.224 36.3895 169.554 25.1324C164.47 16.551 150.135 6.69949 142.385 6.5086C137.686 6.39439 138.596 10.2119 143.676 11.1706C153.887 13.136 164.307 21.1258 170.6 31.7803C177.297 43.1583 183.374 48.5389 193.868 52.3416C201.898 55.2652 199.055 49.4277 193.225 47.4576Z" fill="#F29662"/>
<path fill-rule="evenodd" clip-rule="evenodd" d="M170.118 60.2008C187.219 61.648 219.627 93.5144 235.164 124.192C257.124 167.582 247.375 196.693 203.138 219.569C179.774 231.712 142.301 249.83 142.761 250.347C142.877 250.476 148.408 251.688 155.103 253.023C176.589 257.285 185.608 261.883 185.213 268.267C185.054 270.845 183.637 270.832 171.195 267.781C171.073 267.774 153.302 263.213 121.621 258.418C103.008 255.537 108.267 251.193 119.311 240.994C130.819 230.264 137.078 222.709 144.139 213.163C148.108 207.767 152.663 199.876 159.114 205.139C164.276 209.35 159.608 221.053 146.26 235.627C140.975 241.386 141.842 241.308 155.471 234.137C162.159 230.607 171.821 225.816 176.836 223.43C231.98 197.552 242.785 173.3 219.698 127.203C211.532 110.827 190.273 83.9762 178.852 75.3744C166.898 66.4369 162.944 59.6414 170.118 60.2008Z" fill="#333333"/>
<path fill-rule="evenodd" clip-rule="evenodd" d="M8.8451 236.858C4.05355 263.562 4.06685 268.046 2.93621 274.846C1.18127 285.188 2.99911 288.223 6.18578 281.535C13.8399 265.359 35.3215 245.685 47.4251 243.787C49.0895 243.532 49.3095 243.272 48.4314 242.742C47.2171 241.994 44.4467 242.537 40.5957 244.178C28.318 249.426 16.7513 257.971 8.37819 269.786C6.84976 271.962 6.85767 272.215 7.91637 263.922C9.15707 254.154 10.4997 247.651 12.5655 237.527C13.1146 234.825 9.68931 232.246 8.8451 236.858ZM56.5661 241.956C54.1011 242.54 55.555 243.66 59.0326 243.855C60.3268 243.916 62.0814 244.115 62.9477 244.265C66.7187 244.933 65.514 242.867 61.4637 242.183C58.4576 241.669 57.8484 241.637 56.5661 241.956ZM94.7559 223.438C85.425 227.302 87.0211 238.654 97.0986 240.037C105.522 241.193 111.439 230.24 105.244 224.986C102.954 223.055 97.6331 222.259 94.7559 223.438ZM102.561 225.069C104.935 226.465 105.361 228.732 103.871 232.148C101.246 238.159 95.0703 239.999 92.8751 235.431C90.2734 230.014 97.6299 222.158 102.561 225.069Z" fill="#FFC061"/>
</svg>
