<svg width="16" height="12" viewBox="0 0 16 12" fill="none" xmlns="http://www.w3.org/2000/svg">
<path d="M2.39889 10.5517C2.06822 10.2744 2.3029 10.0077 2.88957 10.0077C3.5189 10.0077 4.31889 8.55703 4.31889 7.4477C4.31889 6.89303 4.24422 6.86103 3.14556 6.86103C-0.00110517 6.86103 -1.1211 4.17304 1.12957 2.01841C4.32957 -1.05359 8.78823 2.96774 7.20957 7.50103C6.3989 9.79437 3.60422 11.565 2.39889 10.5517Z" fill="black"/>
<path d="M15.3269 8.04553C14.4416 9.91219 11.5296 11.5442 10.3455 10.8509C10.0149 10.6589 10.1429 10.4775 10.9536 9.96553C12.5109 8.97353 12.9909 7.34152 11.7216 7.34152C8.15889 7.34152 7.2842 2.30689 10.6655 1.26156C14.7189 0.0135606 17.3429 3.83219 15.3269 8.04553Z" fill="black"/>
</svg>
