<svg width="31" height="29" viewBox="0 0 31 29" fill="none" xmlns="http://www.w3.org/2000/svg">
<path fill-rule="evenodd" clip-rule="evenodd" d="M9.00328 0.0741353C9.75616 0.168064 9.73611 0.126316 9.73611 1.61873V2.95461L10.4588 2.65195C12.0248 2.01532 12.2658 2.17187 13.2094 4.47833C13.631 5.50111 13.641 5.48024 12.587 6.03337L11.7237 6.48214C11.7237 6.48214 13.7113 8.12067 13.6812 8.08936C13.9121 8.30852 13.9522 8.66336 13.7715 8.92428C12.2657 11.1786 10.8303 11.8047 9.70596 10.7089L9.42491 10.4376L9.40481 11.0011C9.39477 11.3142 9.39478 11.8152 9.41486 12.1074C9.46505 13.1719 8.37088 13.412 5.20879 13.0363C4.25514 12.9215 4.31536 13.0049 4.38562 11.8152L4.44586 10.7611L4.15476 10.9176C3.12081 11.4708 2.73936 11.2829 1.60502 9.72789C0.45061 8.14154 0.490773 8.29809 1.11315 7.75539C1.84595 7.10833 2.69919 6.41952 2.83972 6.36734C2.28761 5.74115 1.27373 4.56182 1.27373 4.56182C1.13319 4.41571 1.06296 4.21742 1.06296 4.01913C1.06296 3.82083 1.15329 3.62254 1.29382 3.48687C2.97023 1.89009 3.92387 1.52481 4.74701 2.18231L5.20879 2.54758C5.20879 2.54758 5.2389 0.731634 5.24893 0.616832C5.28909 0.14719 7.26664 -0.145031 9.00328 0.0741353ZM5.83119 4.44702C5.37946 4.37397 4.84739 4.07131 4.28524 3.54948C3.69298 2.99635 3.70301 2.99635 3.13083 3.48687C2.87987 3.70603 2.62895 3.91476 2.56872 3.95651C2.49845 4.00869 2.56871 4.13393 2.75944 4.31135C4.61654 5.99162 5.10842 6.74305 4.36558 6.74305C4.23508 6.74305 2.48838 8.2146 2.48838 8.2146L3.65284 9.96792L3.96404 9.76963C5.95164 8.50682 6.50372 8.70511 6.04196 10.5211C5.6605 12.0239 5.64044 12.264 5.96167 12.264C6.09217 12.264 7.70834 12.3996 7.70834 12.3996L7.76858 11.1577C7.82881 9.81138 7.73848 7.23357 10.0975 9.38348C10.7801 10.0097 10.8704 10.1558 11.1816 9.81138C11.272 9.70701 12.055 8.71555 12.055 8.71555C12.055 8.71555 10.8704 7.71364 10.6195 7.52579C9.4249 6.68043 9.58552 6.5865 10.9809 5.83508C11.5129 5.54286 11.9746 5.28194 12.0148 5.2402C12.0549 5.19845 11.1515 3.40337 11.1515 3.40337L10.1979 3.91476C8.85274 4.64532 8.08982 4.74968 8.2404 3.84171C8.34078 3.21552 8.34078 0.919491 8.34078 0.919491L6.68445 0.898617C6.68445 0.898617 6.87518 2.77719 6.78483 3.73734C6.7246 4.1548 6.65434 4.57226 5.83119 4.44702Z" fill="black"/>
<path fill-rule="evenodd" clip-rule="evenodd" d="M29.1293 12.7633C29.9093 13.6388 29.9285 13.5698 28.4096 15.3056L27.05 16.8592L28.1986 17.2428C30.6678 18.0961 30.7887 18.5234 29.5388 22.1663C28.9882 23.7849 29.0211 23.7708 27.2323 23.3414L25.7715 22.9847C25.7715 22.9847 26.4155 26.9132 26.4123 26.8461C26.4578 27.336 26.1433 27.7895 25.6677 27.9091C21.6221 28.9984 19.3153 28.2657 19.123 25.847L19.0723 25.2453L18.4754 25.8803C18.145 26.2342 17.6352 26.8169 17.3612 27.1772C16.3361 28.4663 14.8193 27.6319 11.5241 23.9767C10.5318 22.8726 10.5169 23.031 11.8095 21.7188L12.9523 20.5542L12.4544 20.44C10.689 20.031 10.4365 19.4243 10.6999 16.4613C10.9718 13.4414 10.8592 13.6644 12.1353 13.6666C13.6461 13.6599 15.3395 13.7272 15.5561 13.8095C15.5513 12.5193 15.5723 10.1159 15.5723 10.1159C15.5576 9.80291 15.6777 9.50082 15.8795 9.2702C16.0813 9.03958 16.3882 8.90089 16.6897 8.88613C20.2646 8.7352 21.7454 9.28093 22.0336 10.8834L22.1989 11.7782C22.1989 11.7782 24.0821 9.69682 24.2106 9.57352C24.7353 9.06818 27.3326 10.741 29.1293 12.7633ZM20.9896 14.6207C20.5386 14.076 20.2278 13.1825 20.1051 12.0035C19.9792 10.7574 19.9909 10.7676 18.8262 10.7557C18.3113 10.7552 17.807 10.7426 17.6945 10.7299C17.5597 10.719 17.5139 10.9362 17.5552 11.3366C18.0049 15.1809 17.8122 16.5554 16.9483 15.7994C16.7965 15.6666 13.2674 15.6003 13.2674 15.6003L12.8373 18.8246L13.401 18.9107C16.9978 19.4649 17.4381 20.2574 15.0529 21.8994C13.0797 23.2591 12.8121 23.5178 13.1857 23.8448C13.3375 23.9776 15.079 25.7802 15.079 25.7802L16.4131 24.3971C17.8533 22.8926 20.3718 19.8027 20.9273 24.7039C21.0839 26.1269 21.0403 26.3888 21.7527 26.305C21.964 26.2755 23.8837 25.9193 23.8837 25.9193C23.8837 25.9193 23.5258 23.5485 23.4251 23.0746C22.8961 20.8757 23.1785 20.9299 25.5661 21.4761C26.4823 21.6777 27.2848 21.8442 27.374 21.8365C27.4632 21.8288 28.2394 18.8217 28.2394 18.8217L26.6099 18.4459C24.3019 17.9265 23.3084 17.2714 24.4076 16.3687C25.1617 15.7426 27.4984 13.0722 27.4984 13.0722L25.5933 11.3622C25.5933 11.3622 23.9033 13.7412 22.821 14.7659C22.3261 15.1901 21.8195 15.6041 20.9896 14.6207Z" fill="black"/>
<path d="M7.00095 8.37599C7.72044 8.24827 8.164 7.16269 7.68105 6.69441C7.38537 6.40705 7.25718 6.47091 7.32618 6.87534C7.40502 7.32234 7.00097 7.99284 6.52788 7.73741C6.04493 7.48198 6.00553 6.42834 7.13897 6.41769C7.37551 6.41769 7.46418 6.26869 7.29663 6.16226C6.7644 5.81105 5.8675 6.0452 5.57182 6.75827C5.23672 7.54585 5.87736 8.5782 7.00095 8.37599Z" fill="black"/>
<path d="M20.5215 20.3527C21.9605 20.0973 22.8476 17.9261 21.8817 16.9895C21.2903 16.4148 21.034 16.5426 21.172 17.3514C21.3296 18.2454 20.5215 19.5864 19.5754 19.0756C18.6095 18.5647 18.5307 16.4574 20.7975 16.4361C21.2706 16.4361 21.448 16.1381 21.1129 15.9253C20.0484 15.2228 18.2546 15.6911 17.6632 17.1173C16.993 18.6924 18.2743 20.7571 20.5215 20.3527Z" fill="black"/>
</svg>
