<svg width="38" height="32" viewBox="0 0 38 32" fill="none" xmlns="http://www.w3.org/2000/svg">
<path fill-rule="evenodd" clip-rule="evenodd" d="M8.37396 0.147088C6.12995 0.513897 7.64038 2.00272 9.49601 2.26165C11.0495 2.47742 14.0271 2.47742 20.4355 2.45584C28.2464 2.43427 31.5908 2.52056 32.0871 2.73633C33.317 3.29733 33.8564 5.45505 34.2017 11.3024C34.3311 13.3738 34.59 16.4809 34.7842 18.2071C35.3884 23.7523 34.8274 24.2918 27.7286 24.5723C24.9883 24.6802 21.4281 24.8959 19.8314 25.047C12.3657 25.759 7.72665 25.6295 5.13741 24.5938C2.97971 23.7307 3.08763 23.0403 3.0229 21.5946C2.87186 18.7896 2.93657 13.0717 3.21707 7.87164C3.45442 3.51309 3.7349 2.65002 5.13741 2.00271C6.00049 1.61432 5.69843 1.16121 4.61958 1.20437C3.0013 1.29067 1.74986 1.83009 1.51251 4.3546C1.21043 7.46169 -0.709983 24.5291 2.74234 25.9748C5.00792 26.9242 8.95652 27.852 10.5101 27.852C11.5889 27.852 11.5458 29.0603 10.467 29.384C7.98561 30.096 9.73331 31.8221 13.013 31.9516C19.6587 32.1674 29.3684 31.628 29.4547 31.0022C29.541 30.3765 28.1385 28.9524 27.4049 28.9524C27.1676 28.9524 27.0165 28.6719 27.0165 28.2619C27.0165 27.6793 27.0165 26.8594 27.6854 26.8594C30.5551 26.8594 32.0871 26.7299 32.9501 26.5357C37.1577 25.6295 37.3303 22.7814 37.2872 21.12C37.1361 14.3232 35.863 7.82853 35.863 6.29656C35.8415 3.64259 34.288 1.03175 30.9651 0.557056C29.6705 0.16867 10.5964 -0.219721 8.37396 0.147088ZM19.6372 13.3522C19.3783 13.0717 16.8753 10.2883 16.1849 9.57626C15.3218 8.6916 14.4371 8.97207 12.5815 10.6767C11.6321 11.5613 10.1433 12.8775 9.25864 13.6327C6.1947 16.222 5.95733 17.3871 8.48184 17.3871C9.34492 17.3871 9.75495 17.085 12.3226 14.4526C15.6455 11.0435 15.3434 11.065 18.2347 13.8701C20.1766 15.7473 19.9393 15.7689 23.0895 13.3091C25.8082 10.7846 27.3617 9.10155 29.3253 7.13804C31.2672 5.19611 28.2895 4.31145 26.7144 5.64922C24.8588 7.18119 19.6588 13.3307 19.6372 13.3522ZM26.6281 12.3381C26.2397 13.3307 26.434 19.9548 26.8655 20.3648C27.9228 21.422 28.5701 19.1564 28.5054 14.6684C28.4622 12.187 27.2539 10.6983 26.6281 12.3381ZM14.1351 15.0352C13.4662 16.8046 14.0271 21.6378 15.3865 21.4005C16.7458 21.1631 15.818 15.8336 15.516 15.0568C15.3218 14.4958 14.3508 14.4742 14.1351 15.0352ZM22.9168 15.5315C22.55 15.9846 22.1833 19.329 22.4206 20.2353C22.8306 21.8535 24.5351 21.1415 24.5351 19.3506C24.5351 16.3514 23.7583 14.5174 22.9168 15.5315ZM10.6395 17.8403C10.3159 18.1639 10.4453 20.5805 10.8337 21.0984C11.5242 22.0477 12.1283 21.4436 12.1283 19.7822C12.1068 18.056 11.3732 17.0851 10.6395 17.8403ZM18.0836 17.8403C17.5226 18.4013 17.911 20.71 18.6014 21.0336C19.7019 21.5299 20.0687 20.1705 19.3998 18.0128C19.2919 17.6244 18.4073 17.5166 18.0836 17.8403ZM23.6505 27.2263C24.5136 27.4636 24.1899 28.2404 24.2763 28.9524L14.3076 29.125C14.3076 29.0603 14.4803 27.3557 14.4803 27.4636C15.1708 27.442 21.4928 27.1831 22.3559 27.1184C22.7012 27.0752 23.3053 27.1399 23.6505 27.2263Z" fill="black"/>
</svg>
