<svg width="39" height="32" viewBox="0 0 39 32" fill="none" xmlns="http://www.w3.org/2000/svg">
<path fill-rule="evenodd" clip-rule="evenodd" d="M31.0379 0.287905C31.9445 0.856765 31.9268 1.14119 30.7891 3.25663C29.4558 5.72761 29.4913 5.46096 28.6203 4.5899L28.9936 3.46995C30.0246 0.412326 29.6691 -0.547607 31.0379 0.287905ZM12.7456 0.305656C13.7411 0.536755 14.0611 0.963435 13.9188 1.85228C13.7944 2.72334 13.9188 2.77664 15.0921 2.43888C15.9453 2.19 17.2787 2.19 17.7409 2.43888C18.2742 2.72331 18.0253 2.97218 17.2076 2.97218C14.4877 2.97218 12.2833 4.92767 11.2878 7.93195C9.74124 12.6428 11.3412 15.1493 11.3412 15.1671L13.8833 20.3402L14.6654 19.2913C15.5187 18.1536 16.1587 17.8337 16.6209 18.2959C16.8698 18.5447 16.8342 18.6514 16.212 19.398C14.701 21.2113 14.541 21.4779 14.541 22.2245C14.541 22.6512 14.3277 23.3978 14.0077 24.0733C12.87 26.4732 13.1011 27.5754 14.9855 28.7486C19.6252 31.6285 38.0775 16.4471 34.2911 12.8561C33.8822 12.465 33.4733 12.3228 32.1578 12.1095C30.1135 11.7718 28.9758 11.1318 28.6913 11.0251C28.5847 11.0607 24.4249 12.3406 22.3984 14.2783C21.6517 14.9894 20.4251 15.1316 20.4251 14.4916C20.4251 13.9583 24.6916 11.4162 26.6826 10.7585C28.1225 10.2785 28.1226 10.474 26.8071 8.73191C24.0161 4.96322 22.0428 3.29218 20.4251 3.29218C19.7674 3.29218 19.714 2.98997 20.3362 2.75887C21.5451 2.29667 23.3405 2.82999 24.9049 4.14547C25.9004 4.96321 26.5049 5.63874 29.2958 8.90968C30.7002 10.5629 31.5534 11.114 32.6911 11.1318C37.9531 11.2029 37.0821 17.3359 31.0379 22.7223C28.0514 25.371 23.6961 28.5175 22.4162 28.9264C22.0606 29.0508 21.4384 29.3175 21.0473 29.5486C18.6474 30.9174 16.0343 31.0063 14.2388 29.993C11.0567 28.1798 12.4966 25.9044 12.5322 23.1312C12.55 21.4601 11.9633 20.1624 9.86567 15.6826C8.21243 12.1628 8.21243 8.64301 9.86567 6.22536C10.399 5.44318 10.2568 5.22986 9.1013 5.03432C7.19918 4.69656 7.18135 3.48775 9.04792 1.49674C9.93676 0.519013 11.5012 0.0212264 12.7456 0.305656ZM9.74129 2.33224C9.03021 3.27442 9.75905 3.82548 10.5235 4.18102C11.5901 4.69655 13.0478 3.52329 12.23 2.77667C11.9812 2.54557 11.8389 2.19003 11.91 1.88782C12.07 1.24786 10.4168 1.42562 9.74129 2.33224ZM36.371 3.50549C36.7443 3.64771 37.3309 4.34101 37.3309 4.62544C37.3309 4.69655 36.9932 4.90989 36.5843 5.08766C36.1755 5.26543 35.0911 5.81651 34.1845 6.33204C32.4423 7.30976 31.9446 7.41643 31.6779 6.95423C31.5357 6.70535 31.8201 6.43867 33.3133 5.37206C34.3088 4.66099 35.2155 3.91439 35.34 3.71885C35.5533 3.2922 35.7666 3.25661 36.371 3.50549ZM38.2553 9.22967C39.1797 10.0652 39.0197 10.1541 36.6376 10.1896C32.7801 10.2429 32.94 9.42518 36.8865 8.92743C37.6865 8.82077 37.8643 8.85636 38.2553 9.22967ZM33.5089 15.4871C33.3133 15.9138 32.9934 16.4826 32.4957 17.247C31.8557 18.2603 31.5535 18.4203 31.1624 17.9759C30.9846 17.7626 31.0379 17.6026 31.3757 17.1226C33.1534 14.6872 33.0289 14.4383 31.109 15.0782C28.3181 15.9849 25.4205 18.207 26.4337 18.5092C29.2603 19.3269 28.1225 23.1845 24.7449 24.2333C23.0561 24.7666 21.1185 23.6645 21.1185 22.1534V21.4246C21.1007 21.4423 16.4965 25.851 16.4965 26.5443C16.4965 27.0065 18.7719 26.9354 19.6963 26.4376C20.123 26.2065 20.9585 26.4376 20.9051 26.7576C20.7807 27.4331 16.052 28.1975 15.1098 27.682C12.0878 26.0643 23.9094 14.9716 30.3624 13.7094C32.1046 13.3894 34.2733 13.7805 33.5089 15.4871ZM23.3406 19.5225C22.4873 20.198 22.4517 20.038 22.825 20.749C23.0561 21.2112 23.0917 21.4601 22.9317 22.0468C22.6295 23.2734 22.8606 23.3267 24.3538 22.4201C26.2737 21.2468 27.127 19.5047 25.776 19.5047C25.4026 19.5047 24.9405 19.3802 24.7449 19.238C24.2827 18.8647 24.1228 18.9003 23.3406 19.5225ZM2.02606 20.8557C2.41715 20.9979 3.50154 21.2113 4.42594 21.3179C7.2169 21.6557 7.32357 22.1712 4.60371 22.1712C2.48826 22.1712 1.1906 21.9223 0.568414 21.389C-0.302652 20.6424 0.56836 20.3224 2.02606 20.8557ZM9.19019 23.7C9.77683 23.9311 9.54571 24.1622 7.03917 25.8332C5.01261 27.1843 3.94596 27.5932 3.09267 27.3087C1.88385 26.9176 2.55944 25.9577 4.40823 25.4244C4.95932 25.2644 6.09698 24.7844 6.93249 24.3578C8.40797 23.6111 8.71021 23.5222 9.19019 23.7ZM10.4524 27.3087C10.6657 27.4332 10.6123 27.6643 10.239 28.642C10.239 28.6598 9.24348 31.433 9.24348 31.4507C8.99461 32.4285 8.26574 31.9662 7.27024 31.113C6.80804 30.7219 7.21696 29.7264 8.30135 28.4998C9.06575 27.6287 9.40353 26.651 10.4524 27.3087Z" fill="black"/>
</svg>
