<svg width="37" height="32" viewBox="0 0 37 32" fill="none" xmlns="http://www.w3.org/2000/svg">
<path d="M30.1877 30.4652C29.1813 30.0422 25.1413 28.6567 23.5953 28.2045C21.7576 27.6649 21.816 27.7087 21.7577 26.7461C21.4952 21.2184 21.2181 20.0954 20.6493 20.6788C20.5035 20.8247 20.5179 23.6249 20.6784 25.696C20.8826 28.2629 20.9992 28.3796 24.1058 29.2984C26.0893 29.8818 26.8623 30.2026 27.6353 30.4943C22.5307 30.4943 12.3651 30.5089 12.3651 30.4506C12.3651 30.4214 13.5319 29.8526 14.9466 29.1671C18.0969 27.6503 17.7907 28.1462 17.6886 24.7334C17.5281 19.8329 17.5427 19.8621 15.4279 19.0453C13.9403 18.4765 12.2485 17.4993 11.3442 16.6972C10.6296 16.07 10.542 16.0263 10.367 16.3034C9.82737 17.1493 7.34798 17.3681 6.00618 16.6972C0.361886 13.824 1.98079 3.68758 7.82927 5.32107C8.6606 5.55443 8.8794 5.56901 9.09818 5.40858C10.1774 4.66476 18.1262 4.21264 22.7641 4.19806C23.1725 4.19806 26.9645 4.63559 24.31 3.64383C21.641 2.63748 13.2986 2.57914 9.52112 4.09595C9.18567 4.22721 9.20027 2.9 9.53572 2.56455C10.1774 1.95199 15.3258 1.12067 20.4888 1.38319C23.1286 1.51446 25.5352 2.08326 26.8186 2.47705C27.227 2.60831 27.5187 2.98752 27.5187 3.42506V3.81884C27.5187 4.95645 27.9562 5.91904 28.4667 5.91904C28.7 5.91904 28.8605 5.46692 28.7439 5.16065C28.5251 4.60642 30.9024 3.14794 32.0254 3.14794C36.0654 3.14794 35.8028 9.69649 33.4692 13.4448C31.3253 16.8868 29.8669 17.441 25.9727 16.2742C23.8434 15.6325 21.5973 15.4721 15.355 16.2596C13.5757 16.493 14.1153 17.1785 16.4051 17.1347C21.9327 17.018 24.9518 17.1201 24.6747 17.4118C24.3538 17.7619 22.8953 18.5494 21.9181 18.8849C20.3721 19.4245 21.1888 20.6351 22.5015 20.0225C23.4786 19.5558 25.1268 18.5348 25.8414 17.8785C26.454 17.3243 26.5124 17.2952 26.8186 17.4848C30.2752 19.687 33.9942 17.2806 35.7736 11.6654C37.6842 5.62735 33.8193 0.303926 29.3418 2.82709L28.5541 3.26463L28.3938 2.78333C28.1312 1.98116 27.5041 1.39778 26.6144 1.07692C22.3265 -0.410726 12.8319 -0.48365 8.73356 1.66031C8.17934 1.952 7.82927 2.53538 7.82927 3.16252C7.82927 3.19169 7.82927 4.47516 7.82927 4.43141L7.42093 4.3293C1.63079 2.87083 -1.65082 11.0675 2.78294 15.9242C4.56228 17.8785 7.23131 18.564 9.81281 17.7327L10.7025 17.441L11.1838 17.9223C11.8984 18.6515 13.7506 19.6725 15.1654 20.1246L16.4343 20.5184C16.5947 21.831 16.6093 21.6414 16.5218 27.3732C15.5446 27.8107 10.1774 30.1735 9.08358 30.5235C7.9168 30.8881 8.26682 31.7195 9.1419 31.7486C10.3233 31.7924 14.1299 31.8215 18.5491 31.8215C24.8351 31.8215 30.4939 31.9966 30.4793 31.9966C31.0919 32.0695 31.3544 30.9611 30.1877 30.4652Z" fill="black"/>
<path d="M8.51443 7.04102C6.38506 5.49503 3.36602 6.60346 3.4827 10.0892C3.61396 13.6333 5.97666 15.8502 9.21447 15.4564C10.3813 15.3106 10.4105 15.2814 10.0458 14.1292C8.33942 8.52866 9.33118 7.63899 8.51443 7.04102ZM8.00397 14.5959C6.10795 13.9688 5.18911 12.5686 5.08702 10.1913C4.98493 7.53689 5.5391 6.72015 6.93924 7.4348L7.63935 7.78483L7.66848 8.93703C7.69765 10.2205 8.12063 12.5686 8.57276 13.8667C8.92279 14.8876 8.92281 14.9022 8.00397 14.5959Z" fill="black"/>
<path d="M28.2768 15.2668C31.6459 16.9878 35.7588 9.54956 33.3815 6.02006C32.7397 5.07205 31.4999 4.61991 30.5228 4.96994C29.6477 5.29081 28.0142 6.99723 28.1892 7.43477C28.3788 7.94523 27.9559 11.1976 27.5329 12.4811C26.9058 14.3479 26.9788 14.5959 28.2768 15.2668ZM28.3351 13.6187C28.7143 12.5248 29.1227 9.97251 29.1227 8.67447C29.1227 6.51593 31.2959 4.72201 32.4627 5.90337C33.5711 7.01181 32.448 11.6643 30.5957 13.6916C29.5018 14.8876 27.9121 14.8438 28.3351 13.6187Z" fill="black"/>
<path d="M23.0262 6.38545C22.7928 5.96249 19.3217 5.69996 16.5943 5.91873C14.3191 6.09374 12.1605 6.53128 11.1104 6.95424C10.1187 7.36261 10.352 7.98976 11.3438 7.81474C12.7294 7.5668 18.0381 7.07093 19.5841 7.07093C22.5448 7.05634 23.3033 6.9105 23.0262 6.38545Z" fill="black"/>
</svg>
